<?xml version="1.0" encoding="UTF-8" standalone="no"?>
<!-- Created with Vectornator (http://vectornator.io/) -->

<svg
   height="465.09961"
   stroke-miterlimit="10"
   style="clip-rule:evenodd;fill-rule:nonzero;stroke-linecap:round;stroke-linejoin:round"
   version="1.1"
   viewBox="0 0 500 465.09961"
   width="500"
   xml:space="preserve"
   id="svg299"
   sodipodi:docname="Work.svg"
   inkscape:version="1.1.2 (0a00cf5339, 2022-02-04)"
   xmlns:inkscape="http://www.inkscape.org/namespaces/inkscape"
   xmlns:sodipodi="http://sodipodi.sourceforge.net/DTD/sodipodi-0.dtd"
   xmlns="http://www.w3.org/2000/svg"
   xmlns:svg="http://www.w3.org/2000/svg"><sodipodi:namedview
   id="namedview301"
   pagecolor="#505050"
   bordercolor="#eeeeee"
   borderopacity="1"
   inkscape:pageshadow="0"
   inkscape:pageopacity="0"
   inkscape:pagecheckerboard="0"
   showgrid="false"
   inkscape:lockguides="true"
   inkscape:zoom="0.87"
   inkscape:cx="54.022988"
   inkscape:cy="276.43678"
   inkscape:window-width="1920"
   inkscape:window-height="1016"
   inkscape:window-x="1080"
   inkscape:window-y="27"
   inkscape:window-maximized="1"
   inkscape:current-layer="svg299" />
<defs
   id="defs20"><marker
   style="overflow:visible"
   id="Arrow1Lend"
   refX="0"
   refY="0"
   orient="auto"
   inkscape:stockid="Arrow1Lend"
   inkscape:isstock="true"><path
     transform="matrix(-0.8,0,0,-0.8,-10,0)"
     style="fill:context-stroke;fill-rule:evenodd;stroke:context-stroke;stroke-width:1pt"
     d="M 0,0 5,-5 -12.5,0 5,5 Z"
     id="path2254" /></marker><marker
   style="overflow:visible"
   id="Arrow1Lstart"
   refX="0"
   refY="0"
   orient="auto"
   inkscape:stockid="Arrow1Lstart"
   inkscape:isstock="true"><path
     transform="matrix(0.8,0,0,0.8,10,0)"
     style="fill:context-stroke;fill-rule:evenodd;stroke:context-stroke;stroke-width:1pt"
     d="M 0,0 5,-5 -12.5,0 5,5 Z"
     id="path2251" /></marker>
<clipPath
   id="TextBounds">
<rect
   height="41.452"
   width="30.1469"
   x="74.311501"
   y="103.816"
   id="rect2" />
</clipPath>
<clipPath
   id="TextBounds_2">
<rect
   height="41.452"
   width="30.1469"
   x="216.756"
   y="551.49701"
   id="rect5" />
</clipPath>
<clipPath
   id="TextBounds_3">
<rect
   height="41.452"
   width="30.1469"
   x="857.37701"
   y="72.915199"
   id="rect8" />
</clipPath>
<clipPath
   id="TextBounds_4">
<rect
   height="85.165001"
   width="236.653"
   x="21.554501"
   y="152.05099"
   id="rect11" />
</clipPath>
<clipPath
   id="TextBounds_5">
<rect
   height="85.165001"
   width="313.52802"
   x="665.19098"
   y="538.685"
   id="rect14" />
</clipPath>
<clipPath
   id="TextBounds_6">
<rect
   height="85.165001"
   width="313.52802"
   x="179.07201"
   y="506.27701"
   id="rect17" />
</clipPath>










































































<marker
   style="overflow:visible"
   id="Arrow1Lend-1"
   refX="0"
   refY="0"
   orient="auto"
   inkscape:stockid="Arrow1Lend"
   inkscape:isstock="true"><path
     transform="matrix(-0.8,0,0,-0.8,-10,0)"
     style="fill:context-stroke;fill-rule:evenodd;stroke:context-stroke;stroke-width:1pt"
     d="M 0,0 5,-5 -12.5,0 5,5 Z"
     id="path2254-9" /></marker></defs>

<path
   d="m 124.0076,66.512648 c 0,-5.07651 4.11548,-9.191993 9.19146,-9.191993 5.07651,0 9.19199,4.115483 9.19199,9.191993 0,5.076509 -4.11548,9.191458 -9.19199,9.191458 -5.07598,0 -9.19146,-4.114949 -9.19146,-9.191458 z"
   fill="#e39f0f"
   fill-rule="nonzero"
   opacity="1"
   stroke="#bf084b"
   stroke-linecap="round"
   stroke-linejoin="round"
   stroke-width="1.0684"
   id="path22" /><path
   d="M 232.0059,30.917784 C 193.96814,46.062376 173.2732,23.73257 134.97314,66.391918 92.195412,114.03889 99.15124,128.29831 74.11058,192.98628"
   fill="none"
   opacity="1"
   stroke="#000000"
   stroke-dasharray="5"
   stroke-linecap="round"
   stroke-linejoin="round"
   stroke-width="1.0684"
   id="path24" /><path
   d="m 83.848525,150.20855 c 1.824296,-0.91188 5.647571,-4.8687 7.303593,-4.8687"
   fill="none"
   opacity="1"
   stroke="#000000"
   stroke-dasharray="5"
   stroke-linecap="round"
   stroke-linejoin="round"
   stroke-width="1.0684"
   id="path26" /><path
   d="m 90.456589,146.03538 c 1.79438,2.69237 2.358496,5.9558 3.129882,9.04241"
   fill="none"
   opacity="1"
   stroke="#000000"
   stroke-dasharray="5"
   stroke-linecap="round"
   stroke-linejoin="round"
   stroke-width="1.0684"
   id="path28" /><path
   d="m 101.93336,102.21435 c 2.64589,-0.8825 5.17961,-3.478178 7.99912,-3.478178"
   fill="none"
   opacity="1"
   stroke="#000000"
   stroke-dasharray="5"
   stroke-linecap="round"
   stroke-linejoin="round"
   stroke-width="1.0684"
   id="path30" /><path
   d="m 110.97577,97.692877 c 1.21478,3.644323 1.21371,7.466523 2.43436,11.129003"
   fill="none"
   opacity="1"
   stroke="#000000"
   stroke-dasharray="5"
   stroke-linecap="round"
   stroke-linejoin="round"
   stroke-width="1.0684"
   id="path32" /><path
   d="m 133.58208,67.087448 c 0.51924,-1.959449 0.10791,0.287934 0.34777,0.347764 0.81786,0.204599 1.39426,-1.910836 0.34776,-2.434353 -1.59672,-0.798096 -2.19022,2.227618 -1.73882,3.129883 0.76177,1.524074 3.23619,-0.936989 2.43435,-1.738824 -1.2324,-1.231867 -2.07484,3.275719 -1.39106,0.69553 z"
   fill="none"
   opacity="1"
   stroke="#000000"
   stroke-linecap="round"
   stroke-linejoin="round"
   stroke-width="1.0684"
   id="path38" /><path
   d="m 383.03995,49.698146 c -54.14873,2.54974 -68.30184,42.126002 -84.60405,68.862214 -17.3893,28.51831 -62.26216,-24.684881 -57.39346,51.13263 2.9114,45.33281 46.60368,61.19964 95.98947,75.80629 49.38579,14.60719 78.60817,-63.642 101.21395,-110.24514 22.6063,-46.603679 19.82419,-82.773342 -43.82103,-85.555994 -3.97765,-0.173615 -7.77529,-0.169876 -11.38488,0 z"
   fill="none"
   opacity="1"
   stroke="#0a1aeb"
   stroke-dasharray="5"
   stroke-linecap="round"
   stroke-linejoin="round"
   stroke-width="1.0684"
   id="path74"
   style="opacity:0.500373;fill:#e3dbdb;stroke:#00ff00" /><path
   d="m 408.89847,55.340907 c -63.6778,2.544398 -80.3235,42.029847 -99.49489,68.711573 -20.44974,28.46008 -73.21863,-24.630395 -67.49306,51.03273 2.00218,26.45843 20.42089,42.86267 46.97654,54.83892 18.85035,8.5018 41.79641,14.7653 65.90702,20.81727 58.07671,14.57727 92.44184,-63.52021 119.02634,-110.0288 26.5845,-46.508053 23.31199,-82.595452 -51.53328,-85.371693 -4.67799,-0.173615 -9.14338,-0.169876 -13.38867,0 z"
   fill="none"
   opacity="1"
   stroke="#bf084b"
   stroke-linecap="round"
   stroke-linejoin="round"
   stroke-width="2"
   id="path76"
   style="opacity:0.529137;fill:#c8b7b7;stroke-width:1.6026;stroke-miterlimit:10;stroke-dasharray:none" /><path
   d="m 240.17169,166.23083 c -1.34191,2.01287 -2.68382,4.02628 -4.02573,6.03914"
   fill="none"
   opacity="1"
   stroke="#000000"
   stroke-linecap="round"
   stroke-linejoin="round"
   stroke-width="1.0684"
   id="path78" /><path
   d="m 240.97727,171.06215 c -1.28475,2.5695 -2.8334,5.256 -4.42906,7.64975"
   fill="none"
   opacity="1"
   stroke="#000000"
   stroke-linecap="round"
   stroke-linejoin="round"
   stroke-width="1.0684"
   id="path80" /><path
   d="m 242.1851,177.50407 c -1.515,3.02892 -4.20897,5.78219 -5.2341,8.85759"
   fill="none"
   opacity="1"
   stroke="#000000"
   stroke-linecap="round"
   stroke-linejoin="round"
   stroke-width="1.0684"
   id="path82" /><path
   d="m 241.78231,185.15329 c -1.42845,2.85691 -2.90979,5.63369 -4.42853,8.45533"
   fill="none"
   opacity="1"
   stroke="#000000"
   stroke-linecap="round"
   stroke-linejoin="round"
   stroke-width="1.0684"
   id="path84" /><path
   d="m 245.00301,189.98514 c -1.75218,4.08877 -3.82916,8.01194 -5.63636,12.07828"
   fill="none"
   opacity="1"
   stroke="#000000"
   stroke-linecap="round"
   stroke-linejoin="round"
   stroke-width="1.0684"
   id="path86" /><path
   d="m 248.22424,198.43994 c -0.58335,1.16616 -0.6763,2.47174 -1.20783,3.62348 -1.3745,2.97763 -2.98405,5.73037 -4.02627,8.85758"
   fill="none"
   opacity="1"
   stroke="#000000"
   stroke-linecap="round"
   stroke-linejoin="round"
   stroke-width="1.0684"
   id="path88" /><path
   d="m 251.44493,205.28412 c -1.06092,4.24422 -2.64376,8.33353 -4.02627,12.48106"
   fill="none"
   opacity="1"
   stroke="#000000"
   stroke-linecap="round"
   stroke-linejoin="round"
   stroke-width="1.0684"
   id="path90" /><path
   d="m 259.89973,212.93387 c -2.97497,4.46271 -4.75973,9.44734 -6.44193,14.49394"
   fill="none"
   opacity="1"
   stroke="#000000"
   stroke-linecap="round"
   stroke-linejoin="round"
   stroke-width="1.0684"
   id="path92" /><path
   d="m 264.32879,218.97301 c -0.62769,5.02149 -2.78639,9.47138 -3.62349,14.49394"
   fill="none"
   opacity="1"
   stroke="#000000"
   stroke-linecap="round"
   stroke-linejoin="round"
   stroke-width="1.0684"
   id="path94" /><path
   d="m 270.36793,222.59649 c 0,5.58721 -0.27939,10.90304 -2.01341,16.10455"
   fill="none"
   opacity="1"
   stroke="#000000"
   stroke-linecap="round"
   stroke-linejoin="round"
   stroke-width="1.0684"
   id="path96" /><path
   d="m 279.62776,227.42781 c 0,5.66039 -0.50642,11.29727 -1.20783,16.90959"
   fill="none"
   opacity="1"
   stroke="#000000"
   stroke-linecap="round"
   stroke-linejoin="round"
   stroke-width="1.0684"
   id="path98" /><path
   d="m 289.69317,231.45408 c 0,5.50226 0,11.00453 0,16.5068"
   fill="none"
   opacity="1"
   stroke="#000000"
   stroke-linecap="round"
   stroke-linejoin="round"
   stroke-width="1.0684"
   id="path100" /><path
   d="m 301.77145,237.49322 c -1.86436,3.72872 -0.68591,8.31376 -0.80504,12.48106 -0.0347,1.21478 0.0182,2.47068 0.40225,3.62349"
   fill="none"
   opacity="1"
   stroke="#000000"
   stroke-linecap="round"
   stroke-linejoin="round"
   stroke-width="1.0684"
   id="path102" /><path
   d="m 309.82399,240.71391 c 0,6.24054 0.77246,10.80154 1.61009,17.71517"
   fill="none"
   opacity="1"
   stroke="#000000"
   stroke-linecap="round"
   stroke-linejoin="round"
   stroke-width="1.0684"
   id="path104" /><path
   d="m 322.30453,242.32453 c -1.01071,4.04336 0.3483,7.71279 0.80557,11.67549 0.24627,2.13734 0.16507,4.30352 0.40225,6.44193 0.14851,1.33283 0.74628,0.69072 1.61062,0.40278"
   fill="none"
   opacity="1"
   stroke="#000000"
   stroke-linecap="round"
   stroke-linejoin="round"
   stroke-width="1.0684"
   id="path106" /><path
   d="m 332.77272,245.54522 c 0,5.61713 0.37021,10.2433 1.20783,16.10455 0.16667,1.1667 0.781,2.39162 1.61062,3.22124"
   fill="none"
   opacity="1"
   stroke="#000000"
   stroke-linecap="round"
   stroke-linejoin="round"
   stroke-width="1.0684"
   id="path108" /><path
   d="m 342.83814,249.5715 c 0.39637,2.37986 1.61328,4.54551 2.01286,6.84471 0.41668,2.39429 0.53688,4.83131 0.80504,7.24697"
   fill="none"
   opacity="1"
   stroke="#000000"
   stroke-linecap="round"
   stroke-linejoin="round"
   stroke-width="1.0684"
   id="path110" /><path
   d="m 242.78874,168.84788 c 0.27618,0.68752 0.93966,-2.14748 0.2014,-2.21426 -1.04383,-0.0951 -2.28585,0.97278 -2.41566,2.01287 -0.0972,0.77619 1.26071,0.99308 2.01287,1.20783 0.73185,0.20887 1.35153,-1.2511 1.20783,-1.61062 -0.86541,-2.16351 -3.2207,-0.46635 -3.2207,1.20783 0,2.98725 4.7811,1.54758 3.2207,-0.40225 -1.69823,-2.12292 -5.06743,0.61593 -2.81791,2.41565 1.16135,0.92898 1.2714,0.33869 2.01287,-0.40278 1.77568,-1.77569 -0.88678,-3.92371 -0.2014,-2.21427 z"
   fill="none"
   opacity="1"
   stroke="#000000"
   stroke-linecap="round"
   stroke-linejoin="round"
   stroke-width="1.0684"
   id="path112" /><path
   d="m 249.43206,192.1994 c -2.12451,-5.90559 -4.41997,0.4092 -3.62348,1.00644 2.76716,2.07537 2.24418,-3.7159 0,-2.81845 -1.45516,0.58228 -1.74577,3.78749 0.40225,4.02627 3.35211,0.37234 3.17583,-5.86018 -0.40225,-4.42852 -1.24095,0.49627 -1.34565,4.04016 0.40225,4.42852 0.79703,0.17682 1.7431,0.0598 2.41566,-0.40278 0.54488,-0.37448 1.0294,-1.18967 0.80557,-1.81148 z"
   fill="none"
   opacity="1"
   stroke="#000000"
   stroke-linecap="round"
   stroke-linejoin="round"
   stroke-width="1.0684"
   id="path114" /><path
   d="m 257.88686,208.10256 c -4.08557,1.1715 3.09569,0.6795 1.20783,-1.20783 -1.26499,-1.26499 -3.96057,1.33924 -3.2207,2.81844 1.75165,3.50329 4.79606,-0.73132 3.62348,-1.61061 -2.54706,-1.9103 -4.12189,3.96484 -2.41565,3.62348 2.03424,-0.40706 2.04706,-3.97979 0.80504,-3.62348 z"
   fill="none"
   opacity="1"
   stroke="#000000"
   stroke-linecap="round"
   stroke-linejoin="round"
   stroke-width="1.0684"
   id="path116" /><path
   d="m 275.19924,219.77805 c -0.53687,-0.13408 -1.26499,-0.83442 -1.61062,-0.40225 -0.50321,0.62875 -0.52992,1.80934 0,2.41565 0.64318,0.73506 1.87024,1.04223 2.81845,0.80504 0.53687,-0.13408 0.75696,-1.18539 0.40225,-1.61061 -0.50001,-0.59991 -2.83287,-1.55079 -3.2207,0 -0.70461,2.81844 6.11927,1.52888 5.63689,-0.40225 -0.63143,-2.52517 -5.23731,0.3953 -4.42906,2.41565 0.91348,2.28318 6.51618,-1.69235 0.40279,-3.22123 z"
   fill="none"
   opacity="1"
   stroke="#000000"
   stroke-linecap="round"
   stroke-linejoin="round"
   stroke-width="1.0684"
   id="path118" /><path
   d="m 304.3885,234.47338 c -0.60097,0.0903 0.38516,-1.65175 -0.20139,-1.81148 -0.75483,-0.2062 -1.50378,0.6138 -2.01287,1.20783 -0.72117,0.84137 -0.63837,1.99898 0.40279,2.41566 1.74309,0.69713 4.21644,-2.27677 2.01286,-3.2207 -2.91086,-1.24789 -5.18067,3.65874 -2.81844,5.23357 1.91084,1.27407 7.5317,-2.9365 5.2341,-5.23357 -2.28264,-2.28317 -5.29126,1.89855 -4.42852,3.62349 1.54384,3.08821 9.49381,-3.3644 1.81147,-2.2148 z"
   fill="none"
   opacity="1"
   stroke="#000000"
   stroke-linecap="round"
   stroke-linejoin="round"
   stroke-width="1.0684"
   id="path120" /><path
   d="m 325.12297,242.52592 c 0.0304,-0.93164 -1.48454,-1.46104 -2.41566,-1.40922 -1.02032,0.0566 -2.22548,2.91086 -1.20782,2.81844 1.56467,-0.14263 3.1037,-0.76711 4.42905,-1.61061 0.33922,-0.21635 0.18003,-0.84778 0,-1.20783 -1.10793,-2.21586 -6.12568,1.56093 -3.22123,3.2207 1.43861,0.82213 5.2341,-0.40226 5.2341,-2.41566 0,-2.00646 -4.15608,-1.5839 -4.83131,-0.40225 -1.29383,2.26447 1.86917,5.43335 2.01287,1.00643 z"
   fill="none"
   opacity="1"
   stroke="#000000"
   stroke-linecap="round"
   stroke-linejoin="round"
   stroke-width="1.0684"
   id="path122" /><path
   d="m 343.03953,246.75305 c -0.0662,0.26871 -0.18163,-1.08122 -0.20139,-0.80504 -0.086,1.20462 -1.03582,3.00221 0,3.62349 0.89852,0.53954 2.01286,-1.36756 2.01286,-2.41566 0,-0.72277 -1.29597,-0.7153 -2.01286,-0.80504 -1.679,-0.20994 -2.95841,2.26661 -2.41566,3.62348 0.35204,0.8809 1.92953,0.7356 2.81791,0.40226 1.12716,-0.42256 2.0134,-2.54387 2.0134,-3.62349 0,-2.03797 -1.80453,-1.67472 -2.21426,0 z"
   fill="none"
   opacity="1"
   stroke="#000000"
   stroke-linecap="round"
   stroke-linejoin="round"
   stroke-width="1.0684"
   id="path124" /><path
   d="m 316.40214,84.903043 c 0,-1.736687 1.29063,-3.14484 2.88308,-3.14484 1.59192,0 2.88309,1.408153 2.88309,3.14484 0,1.736687 -1.29117,3.14484 -2.88309,3.14484 -1.59245,0 -2.88308,-1.408153 -2.88308,-3.14484 z"
   fill="#e39f0f"
   fill-rule="nonzero"
   opacity="1"
   stroke="#000000"
   stroke-linecap="round"
   stroke-linejoin="round"
   stroke-width="1.0684"
   id="path126" /><path
   d="m 342.97489,60.746485 c 0,-1.737221 1.29063,-3.14484 2.88255,-3.14484 1.59245,0 2.88308,1.407619 2.88308,3.14484 0,1.736686 -1.29063,3.144839 -2.88308,3.144839 -1.59192,0 -2.88255,-1.408153 -2.88255,-3.144839 z"
   fill="#e39f0f"
   fill-rule="nonzero"
   opacity="1"
   stroke="#000000"
   stroke-linecap="round"
   stroke-linejoin="round"
   stroke-width="1.0684"
   id="path128" /><path
   d="m 386.4567,49.07046 c 0,-1.736687 1.29062,-3.14484 2.88308,-3.14484 1.59192,0 2.88308,1.408153 2.88308,3.14484 0,1.737221 -1.29116,3.14484 -2.88308,3.14484 -1.59246,0 -2.88308,-1.407619 -2.88308,-3.14484 z"
   fill="#e39f0f"
   fill-rule="nonzero"
   opacity="1"
   stroke="#000000"
   stroke-linecap="round"
   stroke-linejoin="round"
   stroke-width="1.0684"
   id="path130" /><path
   d="m 440.4067,69.20128 c 0,-1.737221 1.29116,-3.14484 2.88308,-3.14484 1.59192,0 2.88308,1.407619 2.88308,3.14484 0,1.736687 -1.29116,3.14484 -2.88308,3.14484 -1.59192,0 -2.88308,-1.408153 -2.88308,-3.14484 z"
   fill="#e39f0f"
   fill-rule="nonzero"
   opacity="1"
   stroke="#000000"
   stroke-linecap="round"
   stroke-linejoin="round"
   stroke-width="1.0684"
   id="path132" /><path
   d="m 435.97817,134.02173 c 0,-1.73668 1.29063,-3.14484 2.88309,-3.14484 1.59191,0 2.88254,1.40816 2.88254,3.14484 0,1.73723 -1.29063,3.14484 -2.88254,3.14484 -1.59246,0 -2.88309,-1.40761 -2.88309,-3.14484 z"
   fill="#e39f0f"
   fill-rule="nonzero"
   opacity="1"
   stroke="#000000"
   stroke-linecap="round"
   stroke-linejoin="round"
   stroke-width="1.0684"
   id="path134" /><path
   d="m 397.72993,209.71317 c 0,-1.73722 1.29063,-3.14537 2.88309,-3.14537 1.59191,0 2.88254,1.40815 2.88254,3.14537 0,1.73669 -1.29063,3.14484 -2.88254,3.14484 -1.59246,0 -2.88309,-1.40815 -2.88309,-3.14484 z"
   fill="#e39f0f"
   fill-rule="nonzero"
   opacity="1"
   stroke="#000000"
   stroke-linecap="round"
   stroke-linejoin="round"
   stroke-width="1.0684"
   id="path136" /><path
   d="m 481.47338,119.12501 c 0,-1.73668 1.29063,-3.14484 2.88308,-3.14484 1.59192,0 2.88255,1.40816 2.88255,3.14484 0,1.73722 -1.29063,3.14484 -2.88255,3.14484 -1.59245,0 -2.88308,-1.40762 -2.88308,-3.14484 z"
   fill="#e39f0f"
   fill-rule="nonzero"
   opacity="1"
   stroke="#000000"
   stroke-linecap="round"
   stroke-linejoin="round"
   stroke-width="1.0684"
   id="path138" /><path
   d="m 428.73121,214.54449 c 0,-1.73722 1.29063,-3.14538 2.88308,-3.14538 1.59192,0 2.88255,1.40816 2.88255,3.14538 0,1.73668 -1.29063,3.14484 -2.88255,3.14484 -1.59245,0 -2.88308,-1.40816 -2.88308,-3.14484 z"
   fill="#e39f0f"
   fill-rule="nonzero"
   opacity="1"
   stroke="#000000"
   stroke-linecap="round"
   stroke-linejoin="round"
   stroke-width="1.0684"
   id="path140" /><path
   d="m 480.66834,80.474519 c 0,-1.737221 1.29063,-3.145375 2.88255,-3.145375 1.59245,0 2.88308,1.408154 2.88308,3.145375 0,1.736686 -1.29063,3.144839 -2.88308,3.144839 -1.59192,0 -2.88255,-1.408153 -2.88255,-3.144839 z"
   fill="#e39f0f"
   fill-rule="nonzero"
   opacity="1"
   stroke="#000000"
   stroke-linecap="round"
   stroke-linejoin="round"
   stroke-width="1.0684"
   id="path142" /><g
   opacity="1"
   id="g150"
   transform="matrix(0.53420076,0,0,0.53420076,-14.923058,-10.81665)">
<path
   d="m 925.361,246.25 c -7.515,2.553 -73.26,24.881 -73.26,24.881"
   fill="none"
   stroke="#000000"
   stroke-linecap="round"
   stroke-linejoin="round"
   stroke-width="2"
   id="path144" />
<g
   fill="#000000"
   stroke="none"
   id="g148">
<path
   d="m 923.704,246.813 -2.72,8.317 11.005,-11.131 -15.507,-2.126 z"
   fill="#000000"
   id="path146" />
</g>
</g><g
   opacity="1"
   id="g158"
   transform="matrix(0.53420076,0,0,0.53420076,-14.923058,-10.81665)">
<path
   d="m 827.902,420.493 c -5.432,-1.087 -49.66,-9.933 -49.66,-9.933"
   fill="none"
   stroke="#000000"
   stroke-linecap="round"
   stroke-linejoin="round"
   stroke-width="2"
   id="path152" />
<g
   fill="#000000"
   stroke="none"
   id="g156">
<path
   d="m 826.186,420.149 -6.521,5.835 15.101,-4.119 -12.355,-9.609 z"
   fill="#000000"
   id="path154" />
</g>
</g><g
   opacity="1"
   id="g166"
   transform="matrix(0.53420076,0,0,0.53420076,-14.923058,-10.81665)">
<path
   d="m 923.77,168.139 c -6.758,-2.013 -64.132,-19.103 -64.132,-19.103"
   fill="none"
   stroke="#000000"
   stroke-linecap="round"
   stroke-linejoin="round"
   stroke-width="2"
   id="path160" />
<g
   fill="#000000"
   stroke="none"
   id="g164">
<path
   d="m 922.092,167.64 -7.029,5.209 15.415,-2.712 -11.419,-10.705 z"
   fill="#000000"
   id="path162" />
</g>
</g><path
   d="m 63.424962,388.47277 c 0,-42.02557 34.87957,-76.09369 77.905698,-76.09369 43.0256,0 77.90517,34.06812 77.90517,76.09369 0,42.02558 -34.87957,76.0937 -77.90517,76.0937 -43.026128,0 -77.905698,-34.06812 -77.905698,-76.0937 z"
   fill="none"
   opacity="1"
   stroke="#000000"
   stroke-dasharray="5"
   stroke-linecap="round"
   stroke-linejoin="round"
   stroke-width="1.0684"
   id="path168"
   style="opacity:0.500523;fill:#f9f9f9;stroke:#00ff00" /><path
   d="m 152.40251,374.38163 c 0,-42.02558 34.87903,-76.09423 77.90517,-76.09423 43.02613,0 77.9057,34.06865 77.9057,76.09423 0,42.02504 -34.87957,76.09369 -77.9057,76.09369 -43.02614,0 -77.90517,-34.06865 -77.90517,-76.09369 z"
   fill="none"
   opacity="1"
   stroke="#bf084b"
   stroke-linecap="round"
   stroke-linejoin="round"
   stroke-width="1.0684"
   id="path170"
   style="opacity:0.508339;fill:#999999" /><g
   opacity="1"
   id="g178"
   transform="matrix(0.53420076,0,0,0.53420076,-14.923058,-10.81665)">
<path
   d="m 460.924,717.471 c -14.277,3.509 -174.077,42.794 -174.077,42.794"
   fill="none"
   stroke="#000000"
   stroke-linecap="round"
   stroke-linejoin="round"
   stroke-width="2"
   id="path172" />
<g
   fill="#000000"
   stroke="none"
   id="g176">
<path
   d="m 459.225,717.888 -3.427,8.051 11.924,-10.14 -15.266,-3.455 z"
   fill="#000000"
   id="path174" />
</g>
</g><path
   clip-path="url(#TextBounds)"
   d="m 86.4756,118.842 -2.6133,-7.606 -2.7773,7.606 z m -3.832,-10.161 h 2.6367 l 6.2461,17.215 H 88.9717 L 87.2256,120.74 H 80.417 l -1.8633,5.156 h -2.3906 z"
   fill="#000000"
   opacity="1"
   stroke="none"
   id="path180"
   transform="matrix(0.53420076,0,0,0.53420076,-14.923058,-10.81665)" /><path
   clip-path="url(#TextBounds_2)"
   d="m 226.552,563.64 c 0.985,0 1.75,-0.137 2.297,-0.41 0.86,-0.43 1.289,-1.203 1.289,-2.32 0,-1.125 -0.457,-1.883 -1.371,-2.274 -0.515,-0.218 -1.281,-0.328 -2.297,-0.328 h -4.16 v 5.332 z m 0.786,7.946 c 1.429,0 2.449,-0.415 3.058,-1.243 0.383,-0.523 0.574,-1.156 0.574,-1.898 0,-1.25 -0.558,-2.102 -1.675,-2.555 -0.594,-0.242 -1.379,-0.363 -2.356,-0.363 h -4.629 v 6.059 z m -7.313,-15.223 h 7.395 c 2.015,0 3.449,0.601 4.3,1.805 0.5,0.71 0.75,1.531 0.75,2.46 0,1.086 -0.308,1.977 -0.925,2.672 -0.321,0.368 -0.782,0.703 -1.383,1.008 0.883,0.336 1.543,0.715 1.98,1.137 0.774,0.75 1.16,1.785 1.16,3.105 0,1.11 -0.347,2.114 -1.042,3.012 -1.04,1.344 -2.692,2.016 -4.958,2.016 h -7.277 z"
   fill="#000000"
   opacity="1"
   stroke="none"
   id="path182"
   transform="matrix(0.53420076,0,0,0.53420076,-40.706789,-0.20955104)" /><path
   clip-path="url(#TextBounds_3)"
   d="m 867.959,77.3121 c 2.18,0 3.871,0.5742 5.074,1.7227 1.204,1.1484 1.872,2.4531 2.004,3.914 h -2.273 c -0.258,-1.1093 -0.772,-1.9883 -1.541,-2.6367 -0.77,-0.6484 -1.85,-0.9726 -3.24,-0.9726 -1.696,0 -3.065,0.5957 -4.108,1.7871 -1.043,1.1914 -1.564,3.0175 -1.564,5.4785 0,2.0156 0.47,3.6504 1.412,4.9043 0.941,1.2539 2.346,1.8808 4.213,1.8808 1.719,0 3.027,-0.6601 3.926,-1.9804 0.476,-0.6953 0.832,-1.6094 1.066,-2.7422 h 2.273 c -0.203,1.8125 -0.875,3.332 -2.015,4.5586 -1.367,1.4765 -3.211,2.2148 -5.531,2.2148 -2,0 -3.68,-0.6055 -5.04,-1.8164 -1.789,-1.6016 -2.683,-4.0742 -2.683,-7.418 0,-2.539 0.672,-4.6211 2.016,-6.2461 1.453,-1.7656 3.457,-2.6484 6.011,-2.6484 z"
   fill="#000000"
   opacity="1"
   stroke="none"
   id="path184"
   transform="matrix(0.53420076,0,0,0.53420076,-14.923058,-10.81665)" /><g
   fill="#000000"
   opacity="1"
   stroke="none"
   id="g218"
   transform="matrix(0.53420076,0,0,0.53420076,-4.3080769,-13.883538)">
<path
   clip-path="url(#TextBounds_4)"
   d="m 27.9353,161.581 h 2.086 v 1.781 c 0.5,-0.617 0.9531,-1.067 1.3593,-1.348 0.6953,-0.476 1.4844,-0.715 2.3672,-0.715 1,0 1.8047,0.246 2.4141,0.739 0.3437,0.281 0.6562,0.695 0.9375,1.242 0.4687,-0.672 1.0195,-1.17 1.6523,-1.494 0.6328,-0.325 1.3438,-0.487 2.1328,-0.487 1.6875,0 2.836,0.61 3.4454,1.828 0.3281,0.657 0.4921,1.539 0.4921,2.649 v 8.355 h -2.1914 v -8.718 c 0,-0.836 -0.209,-1.411 -0.6269,-1.723 -0.418,-0.313 -0.9278,-0.469 -1.5293,-0.469 -0.8281,0 -1.541,0.278 -2.1387,0.832 -0.5976,0.555 -0.8965,1.481 -0.8965,2.778 v 7.3 h -2.1445 v -8.191 c 0,-0.852 -0.1016,-1.473 -0.3047,-1.863 -0.3203,-0.586 -0.918,-0.879 -1.793,-0.879 -0.7968,0 -1.5214,0.308 -2.1738,0.926 -0.6523,0.617 -0.9785,1.734 -0.9785,3.351 v 6.656 h -2.1094 z"
   id="path186" />
<path
   clip-path="url(#TextBounds_4)"
   d="m 52.908,172.772 c 1.3984,0 2.3574,-0.529 2.8769,-1.588 0.5196,-1.059 0.7793,-2.236 0.7793,-3.533 0,-1.172 -0.1875,-2.125 -0.5625,-2.86 -0.5937,-1.156 -1.6172,-1.734 -3.0703,-1.734 -1.289,0 -2.2265,0.492 -2.8125,1.477 -0.5859,0.984 -0.8789,2.172 -0.8789,3.562 0,1.336 0.293,2.449 0.8789,3.34 0.586,0.891 1.5156,1.336 2.7891,1.336 z m 0.082,-11.555 c 1.6172,0 2.9844,0.539 4.1016,1.617 1.1172,1.079 1.6758,2.665 1.6758,4.758 0,2.024 -0.4922,3.696 -1.4766,5.016 -0.9844,1.32 -2.5117,1.98 -4.582,1.98 -1.7266,0 -3.0977,-0.584 -4.1133,-1.752 -1.0156,-1.168 -1.5235,-2.736 -1.5235,-4.705 0,-2.109 0.5352,-3.789 1.6055,-5.039 1.0703,-1.25 2.5078,-1.875 4.3125,-1.875 z"
   id="path188" />
<path
   clip-path="url(#TextBounds_4)"
   d="m 61.697,158.077 h 2.1329 v 3.504 h 2.0039 v 1.722 h -2.0039 v 8.192 c 0,0.437 0.1484,0.73 0.4453,0.879 0.164,0.085 0.4375,0.128 0.8203,0.128 0.1015,0 0.2109,-0.002 0.3281,-0.005 0.1172,-0.004 0.2539,-0.014 0.4102,-0.03 v 1.664 c -0.2422,0.071 -0.4942,0.121 -0.7559,0.153 -0.2617,0.031 -0.5449,0.047 -0.8496,0.047 -0.9844,0 -1.6524,-0.252 -2.0039,-0.756 -0.3516,-0.504 -0.5274,-1.159 -0.5274,-1.963 v -8.309 h -1.6992 v -1.722 h 1.6992 z"
   id="path190" />
<path
   clip-path="url(#TextBounds_4)"
   d="m 67.9431,161.639 h 2.1446 v 12.492 h -2.1446 z m 0,-4.723 h 2.1446 v 2.391 h -2.1446 z"
   id="path192" />
<path
   clip-path="url(#TextBounds_4)"
   d="m 78.2556,172.772 c 1.3985,0 2.3575,-0.529 2.877,-1.588 0.5195,-1.059 0.7793,-2.236 0.7793,-3.533 0,-1.172 -0.1875,-2.125 -0.5625,-2.86 -0.5938,-1.156 -1.6172,-1.734 -3.0703,-1.734 -1.2891,0 -2.2266,0.492 -2.8125,1.477 -0.586,0.984 -0.8789,2.172 -0.8789,3.562 0,1.336 0.2929,2.449 0.8789,3.34 0.5859,0.891 1.5156,1.336 2.789,1.336 z m 0.0821,-11.555 c 1.6172,0 2.9843,0.539 4.1015,1.617 1.1172,1.079 1.6758,2.665 1.6758,4.758 0,2.024 -0.4922,3.696 -1.4766,5.016 -0.9843,1.32 -2.5117,1.98 -4.582,1.98 -1.7265,0 -3.0976,-0.584 -4.1133,-1.752 -1.0156,-1.168 -1.5234,-2.736 -1.5234,-4.705 0,-2.109 0.5352,-3.789 1.6055,-5.039 1.0703,-1.25 2.5078,-1.875 4.3125,-1.875 z"
   id="path194" />
<path
   clip-path="url(#TextBounds_4)"
   d="m 86.6228,161.581 h 2.0039 v 1.781 c 0.5938,-0.735 1.2227,-1.262 1.8867,-1.582 0.6641,-0.321 1.4024,-0.481 2.2149,-0.481 1.7812,0 2.9844,0.621 3.6094,1.864 0.3437,0.679 0.5156,1.652 0.5156,2.918 v 8.05 h -2.1445 v -7.91 c 0,-0.765 -0.1133,-1.383 -0.3399,-1.851 -0.375,-0.782 -1.0547,-1.172 -2.039,-1.172 -0.5,0 -0.9102,0.051 -1.2305,0.152 -0.5781,0.172 -1.086,0.516 -1.5235,1.031 -0.3515,0.414 -0.58,0.842 -0.6855,1.284 -0.1055,0.441 -0.1582,1.072 -0.1582,1.892 v 6.574 h -2.1094 z"
   id="path196" />
<path
   clip-path="url(#TextBounds_4)"
   d="m 111.619,172.772 c 1.398,0 2.357,-0.529 2.877,-1.588 0.519,-1.059 0.779,-2.236 0.779,-3.533 0,-1.172 -0.187,-2.125 -0.562,-2.86 -0.594,-1.156 -1.618,-1.734 -3.071,-1.734 -1.289,0 -2.226,0.492 -2.812,1.477 -0.586,0.984 -0.879,2.172 -0.879,3.562 0,1.336 0.293,2.449 0.879,3.34 0.586,0.891 1.515,1.336 2.789,1.336 z m 0.082,-11.555 c 1.617,0 2.984,0.539 4.102,1.617 1.117,1.079 1.675,2.665 1.675,4.758 0,2.024 -0.492,3.696 -1.476,5.016 -0.985,1.32 -2.512,1.98 -4.582,1.98 -1.727,0 -3.098,-0.584 -4.114,-1.752 -1.015,-1.168 -1.523,-2.736 -1.523,-4.705 0,-2.109 0.535,-3.789 1.605,-5.039 1.071,-1.25 2.508,-1.875 4.313,-1.875 z"
   id="path198" />
<path
   clip-path="url(#TextBounds_4)"
   d="m 120.513,159.67 c 0.032,-0.875 0.184,-1.515 0.457,-1.921 0.493,-0.719 1.442,-1.079 2.848,-1.079 0.133,0 0.27,0.004 0.41,0.012 0.141,0.008 0.301,0.02 0.481,0.035 v 1.922 c -0.219,-0.015 -0.377,-0.025 -0.475,-0.029 -0.098,-0.004 -0.189,-0.006 -0.275,-0.006 -0.641,0 -1.024,0.166 -1.149,0.498 -0.125,0.332 -0.187,1.178 -0.187,2.537 h 2.086 v 1.664 h -2.11 v 10.828 h -2.086 v -10.828 h -1.746 v -1.664 h 1.746 z"
   id="path200" />
<path
   clip-path="url(#TextBounds_4)"
   d="m 145.287,172.713 c 0.984,0 1.803,-0.412 2.455,-1.236 0.652,-0.824 0.978,-2.057 0.978,-3.697 0,-1 -0.144,-1.86 -0.433,-2.578 -0.547,-1.383 -1.547,-2.075 -3,-2.075 -1.461,0 -2.461,0.731 -3,2.192 -0.289,0.781 -0.434,1.773 -0.434,2.976 0,0.969 0.145,1.793 0.434,2.473 0.547,1.297 1.547,1.945 3,1.945 z m -5.461,-11.074 h 2.051 v 1.664 c 0.422,-0.57 0.883,-1.012 1.383,-1.324 0.71,-0.469 1.546,-0.703 2.507,-0.703 1.422,0 2.629,0.545 3.621,1.635 0.993,1.089 1.489,2.646 1.489,4.67 0,2.734 -0.715,4.687 -2.145,5.859 -0.906,0.742 -1.961,1.113 -3.164,1.113 -0.945,0 -1.738,-0.207 -2.379,-0.621 -0.375,-0.234 -0.793,-0.637 -1.254,-1.207 v 6.41 h -2.109 z"
   id="path202" />
<path
   clip-path="url(#TextBounds_4)"
   d="m 154.955,170.791 c 0,0.61 0.223,1.09 0.668,1.442 0.445,0.351 0.972,0.527 1.582,0.527 0.742,0 1.461,-0.172 2.156,-0.515 1.172,-0.571 1.758,-1.504 1.758,-2.801 v -1.699 c -0.258,0.164 -0.59,0.3 -0.996,0.41 -0.406,0.109 -0.805,0.187 -1.195,0.234 l -1.278,0.164 c -0.765,0.102 -1.34,0.262 -1.722,0.481 -0.649,0.367 -0.973,0.953 -0.973,1.757 z m 5.109,-4.265 c 0.485,-0.063 0.809,-0.266 0.973,-0.61 0.094,-0.187 0.141,-0.457 0.141,-0.808 0,-0.719 -0.256,-1.24 -0.768,-1.565 -0.512,-0.324 -1.244,-0.486 -2.197,-0.486 -1.102,0 -1.883,0.297 -2.344,0.891 -0.258,0.328 -0.426,0.816 -0.504,1.465 h -1.969 c 0.039,-1.547 0.541,-2.623 1.506,-3.229 0.965,-0.605 2.084,-0.908 3.358,-0.908 1.476,0 2.675,0.281 3.597,0.844 0.914,0.562 1.371,1.437 1.371,2.625 v 7.23 c 0,0.219 0.045,0.395 0.135,0.527 0.09,0.133 0.279,0.2 0.568,0.2 0.094,0 0.2,-0.006 0.317,-0.018 0.117,-0.012 0.242,-0.029 0.375,-0.053 v 1.559 c -0.328,0.094 -0.578,0.152 -0.75,0.176 -0.172,0.023 -0.406,0.035 -0.703,0.035 -0.727,0 -1.254,-0.258 -1.582,-0.774 -0.172,-0.273 -0.293,-0.66 -0.364,-1.16 -0.429,0.563 -1.046,1.051 -1.851,1.465 -0.805,0.414 -1.692,0.621 -2.66,0.621 -1.164,0 -2.116,-0.353 -2.854,-1.06 -0.738,-0.707 -1.107,-1.592 -1.107,-2.655 0,-1.164 0.363,-2.066 1.09,-2.707 0.726,-0.64 1.679,-1.035 2.859,-1.183 z"
   id="path204" />
<path
   clip-path="url(#TextBounds_4)"
   d="m 166.744,161.581 h 2.004 v 2.168 c 0.164,-0.422 0.566,-0.936 1.207,-1.542 0.64,-0.605 1.379,-0.908 2.215,-0.908 0.039,0 0.105,0.004 0.199,0.012 0.094,0.008 0.254,0.023 0.48,0.047 v 2.226 c -0.125,-0.023 -0.24,-0.039 -0.345,-0.046 -0.106,-0.008 -0.221,-0.012 -0.346,-0.012 -1.063,0 -1.879,0.342 -2.449,1.025 -0.571,0.684 -0.856,1.471 -0.856,2.362 v 7.218 h -2.109 z"
   id="path206" />
<path
   clip-path="url(#TextBounds_4)"
   d="m 175.099,158.077 h 2.133 v 3.504 h 2.004 v 1.722 h -2.004 v 8.192 c 0,0.437 0.149,0.73 0.446,0.879 0.164,0.085 0.437,0.128 0.82,0.128 0.101,0 0.211,-0.002 0.328,-0.005 0.117,-0.004 0.254,-0.014 0.41,-0.03 v 1.664 c -0.242,0.071 -0.494,0.121 -0.756,0.153 -0.261,0.031 -0.545,0.047 -0.849,0.047 -0.985,0 -1.653,-0.252 -2.004,-0.756 -0.352,-0.504 -0.528,-1.159 -0.528,-1.963 v -8.309 H 173.4 v -1.722 h 1.699 z"
   id="path208" />
<path
   clip-path="url(#TextBounds_4)"
   d="m 181.345,161.639 h 2.145 v 12.492 h -2.145 z m 0,-4.723 h 2.145 v 2.391 h -2.145 z"
   id="path210" />
<path
   clip-path="url(#TextBounds_4)"
   d="m 191.517,161.217 c 1.414,0 2.565,0.344 3.452,1.032 0.886,0.687 1.419,1.871 1.599,3.55 h -2.051 c -0.125,-0.773 -0.41,-1.416 -0.855,-1.927 -0.445,-0.512 -1.16,-0.768 -2.145,-0.768 -1.343,0 -2.304,0.656 -2.882,1.969 -0.375,0.851 -0.563,1.902 -0.563,3.152 0,1.258 0.266,2.316 0.797,3.176 0.531,0.859 1.367,1.289 2.508,1.289 0.875,0 1.568,-0.268 2.08,-0.803 0.512,-0.535 0.865,-1.267 1.06,-2.197 h 2.051 c -0.234,1.664 -0.82,2.881 -1.758,3.65 -0.937,0.77 -2.136,1.155 -3.597,1.155 -1.641,0 -2.95,-0.6 -3.926,-1.799 -0.977,-1.199 -1.465,-2.697 -1.465,-4.494 0,-2.203 0.535,-3.918 1.606,-5.145 1.07,-1.226 2.433,-1.84 4.089,-1.84 z"
   id="path212" />
<path
   clip-path="url(#TextBounds_4)"
   d="m 198.736,156.916 h 2.109 v 17.215 h -2.109 z"
   id="path214" />
<path
   clip-path="url(#TextBounds_4)"
   d="m 209.236,161.299 c 0.891,0 1.754,0.209 2.59,0.627 0.836,0.418 1.473,0.959 1.91,1.623 0.422,0.633 0.703,1.371 0.844,2.215 0.125,0.578 0.187,1.5 0.187,2.766 h -9.199 c 0.039,1.273 0.34,2.295 0.902,3.064 0.563,0.77 1.434,1.155 2.614,1.155 1.101,0 1.98,-0.364 2.636,-1.09 0.375,-0.422 0.641,-0.91 0.797,-1.465 h 2.075 c -0.055,0.461 -0.237,0.974 -0.545,1.541 -0.309,0.566 -0.655,1.029 -1.037,1.389 -0.641,0.625 -1.434,1.046 -2.379,1.265 -0.508,0.125 -1.082,0.188 -1.723,0.188 -1.563,0 -2.887,-0.569 -3.973,-1.705 -1.086,-1.137 -1.629,-2.729 -1.629,-4.776 0,-2.015 0.547,-3.652 1.641,-4.91 1.094,-1.258 2.523,-1.887 4.289,-1.887 z m 3.363,5.555 c -0.086,-0.914 -0.285,-1.645 -0.597,-2.191 -0.578,-1.016 -1.543,-1.524 -2.895,-1.524 -0.969,0 -1.781,0.35 -2.437,1.049 -0.657,0.699 -1.004,1.588 -1.043,2.666 z"
   id="path216" />
</g><g
   fill="#000000"
   opacity="1"
   stroke="none"
   id="g264"
   transform="matrix(0.53420076,0,0,0.53420076,-14.923058,-10.81665)">
<path
   clip-path="url(#TextBounds_5)"
   d="m 674.906,548.215 h 2.085 v 1.781 c 0.5,-0.617 0.954,-1.067 1.36,-1.348 0.695,-0.476 1.484,-0.715 2.367,-0.715 1,0 1.805,0.246 2.414,0.739 0.344,0.281 0.656,0.695 0.938,1.242 0.468,-0.672 1.019,-1.17 1.652,-1.494 0.633,-0.325 1.344,-0.487 2.133,-0.487 1.687,0 2.836,0.61 3.445,1.828 0.328,0.657 0.492,1.539 0.492,2.649 v 8.355 h -2.191 v -8.718 c 0,-0.836 -0.209,-1.411 -0.627,-1.723 -0.418,-0.313 -0.928,-0.469 -1.529,-0.469 -0.829,0 -1.541,0.277 -2.139,0.832 -0.598,0.555 -0.897,1.481 -0.897,2.778 v 7.3 h -2.144 v -8.191 c 0,-0.852 -0.102,-1.473 -0.305,-1.863 -0.32,-0.586 -0.918,-0.879 -1.793,-0.879 -0.797,0 -1.521,0.308 -2.174,0.925 -0.652,0.618 -0.978,1.735 -0.978,3.352 v 6.656 h -2.109 z"
   id="path220" />
<path
   clip-path="url(#TextBounds_5)"
   d="m 699.878,559.406 c 1.399,0 2.358,-0.529 2.877,-1.588 0.52,-1.059 0.779,-2.236 0.779,-3.533 0,-1.172 -0.187,-2.125 -0.562,-2.86 -0.594,-1.156 -1.617,-1.734 -3.07,-1.734 -1.289,0 -2.227,0.492 -2.813,1.477 -0.586,0.984 -0.879,2.172 -0.879,3.562 0,1.336 0.293,2.449 0.879,3.34 0.586,0.891 1.516,1.336 2.789,1.336 z m 0.082,-11.555 c 1.617,0 2.985,0.539 4.102,1.617 1.117,1.079 1.676,2.664 1.676,4.758 0,2.024 -0.493,3.696 -1.477,5.016 -0.984,1.32 -2.512,1.98 -4.582,1.98 -1.727,0 -3.098,-0.584 -4.113,-1.752 -1.016,-1.168 -1.524,-2.736 -1.524,-4.705 0,-2.109 0.535,-3.789 1.606,-5.039 1.07,-1.25 2.508,-1.875 4.312,-1.875 z"
   id="path222" />
<path
   clip-path="url(#TextBounds_5)"
   d="m 708.667,544.711 h 2.133 v 3.504 h 2.004 v 1.722 H 710.8 v 8.192 c 0,0.437 0.149,0.73 0.445,0.878 0.164,0.086 0.438,0.129 0.821,0.129 0.101,0 0.211,-0.002 0.328,-0.005 0.117,-0.004 0.254,-0.014 0.41,-0.03 v 1.664 c -0.242,0.071 -0.494,0.121 -0.756,0.153 -0.262,0.031 -0.545,0.047 -0.849,0.047 -0.985,0 -1.653,-0.252 -2.004,-0.756 -0.352,-0.504 -0.528,-1.159 -0.528,-1.963 v -8.309 h -1.699 v -1.722 h 1.699 z"
   id="path224" />
<path
   clip-path="url(#TextBounds_5)"
   d="m 714.913,548.273 h 2.145 v 12.492 h -2.145 z m 0,-4.723 h 2.145 v 2.391 h -2.145 z"
   id="path226" />
<path
   clip-path="url(#TextBounds_5)"
   d="m 725.226,559.406 c 1.398,0 2.357,-0.529 2.877,-1.588 0.519,-1.059 0.779,-2.236 0.779,-3.533 0,-1.172 -0.187,-2.125 -0.562,-2.86 -0.594,-1.156 -1.618,-1.734 -3.071,-1.734 -1.289,0 -2.226,0.492 -2.812,1.477 -0.586,0.984 -0.879,2.172 -0.879,3.562 0,1.336 0.293,2.449 0.879,3.34 0.586,0.891 1.515,1.336 2.789,1.336 z m 0.082,-11.555 c 1.617,0 2.984,0.539 4.101,1.617 1.118,1.079 1.676,2.664 1.676,4.758 0,2.024 -0.492,3.696 -1.476,5.016 -0.985,1.32 -2.512,1.98 -4.582,1.98 -1.727,0 -3.098,-0.584 -4.114,-1.752 -1.015,-1.168 -1.523,-2.736 -1.523,-4.705 0,-2.109 0.535,-3.789 1.605,-5.039 1.071,-1.25 2.508,-1.875 4.313,-1.875 z"
   id="path228" />
<path
   clip-path="url(#TextBounds_5)"
   d="m 733.593,548.215 h 2.004 v 1.781 c 0.594,-0.735 1.223,-1.262 1.887,-1.582 0.664,-0.321 1.402,-0.481 2.215,-0.481 1.781,0 2.984,0.621 3.609,1.864 0.344,0.679 0.516,1.652 0.516,2.918 v 8.05 h -2.145 v -7.91 c 0,-0.765 -0.113,-1.383 -0.34,-1.851 -0.375,-0.782 -1.055,-1.172 -2.039,-1.172 -0.5,0 -0.91,0.05 -1.23,0.152 -0.579,0.172 -1.086,0.516 -1.524,1.031 -0.351,0.414 -0.58,0.842 -0.685,1.283 -0.106,0.442 -0.159,1.073 -0.159,1.893 v 6.574 h -2.109 z"
   id="path230" />
<path
   clip-path="url(#TextBounds_5)"
   d="m 758.589,559.406 c 1.399,0 2.358,-0.529 2.877,-1.588 0.52,-1.059 0.779,-2.236 0.779,-3.533 0,-1.172 -0.187,-2.125 -0.562,-2.86 -0.594,-1.156 -1.617,-1.734 -3.07,-1.734 -1.289,0 -2.227,0.492 -2.813,1.477 -0.586,0.984 -0.879,2.172 -0.879,3.562 0,1.336 0.293,2.449 0.879,3.34 0.586,0.891 1.516,1.336 2.789,1.336 z m 0.082,-11.555 c 1.617,0 2.985,0.539 4.102,1.617 1.117,1.079 1.676,2.664 1.676,4.758 0,2.024 -0.493,3.696 -1.477,5.016 -0.984,1.32 -2.512,1.98 -4.582,1.98 -1.727,0 -3.098,-0.584 -4.113,-1.752 -1.016,-1.168 -1.524,-2.736 -1.524,-4.705 0,-2.109 0.535,-3.789 1.606,-5.039 1.07,-1.25 2.507,-1.875 4.312,-1.875 z"
   id="path232" />
<path
   clip-path="url(#TextBounds_5)"
   d="m 767.484,546.304 c 0.031,-0.875 0.183,-1.515 0.457,-1.922 0.492,-0.718 1.441,-1.078 2.847,-1.078 0.133,0 0.27,0.004 0.411,0.012 0.14,0.008 0.3,0.02 0.48,0.035 v 1.922 c -0.219,-0.016 -0.377,-0.025 -0.475,-0.029 -0.097,-0.004 -0.189,-0.006 -0.275,-0.006 -0.641,0 -1.023,0.166 -1.148,0.498 -0.125,0.332 -0.188,1.178 -0.188,2.537 h 2.086 v 1.664 h -2.109 v 10.828 h -2.086 v -10.828 h -1.746 v -1.664 h 1.746 z"
   id="path234" />
<path
   clip-path="url(#TextBounds_5)"
   d="m 788.296,554.636 c 0,1.344 0.285,2.469 0.856,3.375 0.57,0.907 1.484,1.36 2.742,1.36 0.976,0 1.779,-0.42 2.408,-1.26 0.629,-0.84 0.943,-2.045 0.943,-3.615 0,-1.586 -0.324,-2.76 -0.972,-3.522 -0.649,-0.761 -1.449,-1.142 -2.403,-1.142 -1.062,0 -1.923,0.406 -2.584,1.218 -0.66,0.813 -0.99,2.008 -0.99,3.586 z m 3.176,-6.644 c 0.961,0 1.766,0.203 2.414,0.609 0.375,0.235 0.801,0.645 1.277,1.231 v -6.34 h 2.028 v 17.273 h -1.899 v -1.746 c -0.492,0.774 -1.074,1.332 -1.746,1.676 -0.672,0.344 -1.441,0.516 -2.308,0.516 -1.399,0 -2.61,-0.588 -3.633,-1.764 -1.024,-1.176 -1.535,-2.74 -1.535,-4.693 0,-1.829 0.466,-3.413 1.4,-4.752 0.934,-1.34 2.268,-2.01 4.002,-2.01 z"
   id="path236" />
<path
   clip-path="url(#TextBounds_5)"
   d="m 805.534,547.933 c 0.891,0 1.754,0.209 2.59,0.627 0.836,0.418 1.473,0.959 1.91,1.623 0.422,0.633 0.704,1.371 0.844,2.215 0.125,0.578 0.188,1.5 0.188,2.766 h -9.2 c 0.04,1.273 0.34,2.295 0.903,3.064 0.562,0.77 1.433,1.154 2.613,1.154 1.102,0 1.981,-0.363 2.637,-1.089 0.375,-0.422 0.64,-0.911 0.797,-1.465 h 2.074 c -0.055,0.461 -0.236,0.974 -0.545,1.541 -0.309,0.566 -0.654,1.029 -1.037,1.388 -0.641,0.625 -1.434,1.047 -2.379,1.266 -0.508,0.125 -1.082,0.188 -1.723,0.188 -1.562,0 -2.886,-0.569 -3.972,-1.705 -1.086,-1.137 -1.629,-2.729 -1.629,-4.776 0,-2.015 0.547,-3.652 1.64,-4.91 1.094,-1.258 2.524,-1.887 4.289,-1.887 z m 3.364,5.555 c -0.086,-0.914 -0.285,-1.645 -0.598,-2.191 -0.578,-1.016 -1.543,-1.524 -2.894,-1.524 -0.969,0 -1.782,0.35 -2.438,1.049 -0.656,0.699 -1.004,1.588 -1.043,2.666 z"
   id="path238" />
<path
   clip-path="url(#TextBounds_5)"
   d="m 814.183,546.304 c 0.031,-0.875 0.183,-1.515 0.457,-1.922 0.492,-0.718 1.441,-1.078 2.848,-1.078 0.132,0 0.269,0.004 0.41,0.012 0.14,0.008 0.301,0.02 0.48,0.035 v 1.922 c -0.219,-0.016 -0.377,-0.025 -0.474,-0.029 -0.098,-0.004 -0.19,-0.006 -0.276,-0.006 -0.64,0 -1.023,0.166 -1.148,0.498 -0.125,0.332 -0.188,1.178 -0.188,2.537 h 2.086 v 1.664 h -2.109 v 10.828 h -2.086 v -10.828 h -1.746 v -1.664 h 1.746 z"
   id="path240" />
<path
   clip-path="url(#TextBounds_5)"
   d="m 825.304,559.406 c 1.398,0 2.357,-0.529 2.877,-1.588 0.519,-1.059 0.779,-2.236 0.779,-3.533 0,-1.172 -0.187,-2.125 -0.562,-2.86 -0.594,-1.156 -1.617,-1.734 -3.071,-1.734 -1.289,0 -2.226,0.492 -2.812,1.477 -0.586,0.984 -0.879,2.172 -0.879,3.562 0,1.336 0.293,2.449 0.879,3.34 0.586,0.891 1.516,1.336 2.789,1.336 z m 0.082,-11.555 c 1.617,0 2.984,0.539 4.102,1.617 1.117,1.079 1.675,2.664 1.675,4.758 0,2.024 -0.492,3.696 -1.476,5.016 -0.985,1.32 -2.512,1.98 -4.582,1.98 -1.727,0 -3.098,-0.584 -4.114,-1.752 -1.015,-1.168 -1.523,-2.736 -1.523,-4.705 0,-2.109 0.535,-3.789 1.606,-5.039 1.07,-1.25 2.507,-1.875 4.312,-1.875 z"
   id="path242" />
<path
   clip-path="url(#TextBounds_5)"
   d="m 833.73,548.215 h 2.004 v 2.167 c 0.164,-0.421 0.566,-0.935 1.207,-1.541 0.64,-0.605 1.379,-0.908 2.215,-0.908 0.039,0 0.105,0.004 0.199,0.012 0.094,0.008 0.254,0.023 0.48,0.047 v 2.226 c -0.125,-0.023 -0.24,-0.039 -0.345,-0.046 -0.106,-0.008 -0.221,-0.012 -0.346,-0.012 -1.063,0 -1.879,0.342 -2.449,1.025 -0.571,0.684 -0.856,1.471 -0.856,2.362 v 7.218 h -2.109 z"
   id="path244" />
<path
   clip-path="url(#TextBounds_5)"
   d="m 841.663,548.215 h 2.086 v 1.781 c 0.5,-0.617 0.953,-1.067 1.36,-1.348 0.695,-0.476 1.484,-0.715 2.367,-0.715 1,0 1.805,0.246 2.414,0.739 0.344,0.281 0.656,0.695 0.937,1.242 0.469,-0.672 1.02,-1.17 1.653,-1.494 0.633,-0.325 1.344,-0.487 2.133,-0.487 1.687,0 2.836,0.61 3.445,1.828 0.328,0.657 0.492,1.539 0.492,2.649 v 8.355 h -2.191 v -8.718 c 0,-0.836 -0.209,-1.411 -0.627,-1.723 -0.418,-0.313 -0.928,-0.469 -1.53,-0.469 -0.828,0 -1.541,0.277 -2.138,0.832 -0.598,0.555 -0.897,1.481 -0.897,2.778 v 7.3 h -2.144 v -8.191 c 0,-0.852 -0.102,-1.473 -0.305,-1.863 -0.32,-0.586 -0.918,-0.879 -1.793,-0.879 -0.797,0 -1.521,0.308 -2.174,0.925 -0.652,0.618 -0.978,1.735 -0.978,3.352 v 6.656 h -2.11 z"
   id="path246" />
<path
   clip-path="url(#TextBounds_5)"
   d="m 863.273,557.425 c 0,0.61 0.222,1.09 0.668,1.442 0.445,0.351 0.972,0.527 1.582,0.527 0.742,0 1.461,-0.172 2.156,-0.515 1.172,-0.571 1.758,-1.504 1.758,-2.801 v -1.699 c -0.258,0.164 -0.59,0.3 -0.996,0.41 -0.407,0.109 -0.805,0.187 -1.196,0.234 l -1.277,0.164 c -0.766,0.102 -1.34,0.262 -1.723,0.481 -0.648,0.367 -0.972,0.953 -0.972,1.757 z m 5.109,-4.265 c 0.484,-0.063 0.809,-0.266 0.973,-0.61 0.094,-0.187 0.14,-0.457 0.14,-0.808 0,-0.719 -0.255,-1.24 -0.767,-1.565 -0.512,-0.324 -1.244,-0.486 -2.197,-0.486 -1.102,0 -1.883,0.297 -2.344,0.891 -0.258,0.328 -0.426,0.816 -0.504,1.465 h -1.969 c 0.039,-1.547 0.541,-2.624 1.506,-3.229 0.965,-0.605 2.084,-0.908 3.357,-0.908 1.477,0 2.676,0.281 3.598,0.844 0.914,0.562 1.371,1.437 1.371,2.625 v 7.23 c 0,0.219 0.045,0.395 0.135,0.527 0.09,0.133 0.279,0.2 0.568,0.2 0.094,0 0.2,-0.006 0.317,-0.018 0.117,-0.012 0.242,-0.029 0.375,-0.053 v 1.559 c -0.328,0.094 -0.578,0.152 -0.75,0.176 -0.172,0.023 -0.407,0.035 -0.703,0.035 -0.727,0 -1.254,-0.258 -1.582,-0.774 -0.172,-0.273 -0.293,-0.66 -0.364,-1.16 -0.429,0.563 -1.047,1.051 -1.851,1.465 -0.805,0.414 -1.692,0.621 -2.66,0.621 -1.165,0 -2.116,-0.353 -2.854,-1.06 -0.738,-0.707 -1.107,-1.592 -1.107,-2.655 0,-1.164 0.363,-2.066 1.089,-2.707 0.727,-0.64 1.68,-1.035 2.86,-1.183 z"
   id="path248" />
<path
   clip-path="url(#TextBounds_5)"
   d="m 874.839,543.492 h 2.051 v 6.246 c 0.461,-0.602 1.012,-1.061 1.652,-1.377 0.641,-0.316 1.336,-0.475 2.086,-0.475 1.563,0 2.83,0.537 3.803,1.612 0.973,1.074 1.459,2.658 1.459,4.752 0,1.984 -0.481,3.632 -1.441,4.945 -0.961,1.312 -2.293,1.969 -3.997,1.969 -0.953,0 -1.757,-0.231 -2.414,-0.692 -0.39,-0.273 -0.808,-0.711 -1.254,-1.312 v 1.605 h -1.945 z m 5.485,15.808 c 1.14,0 1.994,-0.453 2.56,-1.359 0.566,-0.906 0.85,-2.101 0.85,-3.586 0,-1.32 -0.284,-2.414 -0.85,-3.281 -0.566,-0.867 -1.4,-1.301 -2.502,-1.301 -0.961,0 -1.803,0.356 -2.525,1.067 -0.723,0.71 -1.084,1.882 -1.084,3.515 0,1.18 0.148,2.137 0.445,2.871 0.555,1.383 1.59,2.074 3.106,2.074 z"
   id="path250" />
<path
   clip-path="url(#TextBounds_5)"
   d="m 888.409,543.55 h 2.11 v 17.215 h -2.11 z"
   id="path252" />
<path
   clip-path="url(#TextBounds_5)"
   d="m 898.909,547.933 c 0.891,0 1.754,0.209 2.59,0.627 0.836,0.418 1.473,0.959 1.91,1.623 0.422,0.633 0.704,1.371 0.844,2.215 0.125,0.578 0.188,1.5 0.188,2.766 h -9.2 c 0.04,1.273 0.34,2.295 0.903,3.064 0.562,0.77 1.433,1.154 2.613,1.154 1.102,0 1.981,-0.363 2.637,-1.089 0.375,-0.422 0.64,-0.911 0.797,-1.465 h 2.074 c -0.055,0.461 -0.236,0.974 -0.545,1.541 -0.309,0.566 -0.654,1.029 -1.037,1.388 -0.641,0.625 -1.434,1.047 -2.379,1.266 -0.508,0.125 -1.082,0.188 -1.723,0.188 -1.562,0 -2.886,-0.569 -3.972,-1.705 -1.086,-1.137 -1.629,-2.729 -1.629,-4.776 0,-2.015 0.547,-3.652 1.64,-4.91 1.094,-1.258 2.524,-1.887 4.289,-1.887 z m 3.364,5.555 c -0.086,-0.914 -0.285,-1.645 -0.598,-2.191 -0.578,-1.016 -1.543,-1.524 -2.894,-1.524 -0.969,0 -1.782,0.35 -2.438,1.049 -0.656,0.699 -1.004,1.588 -1.043,2.666 z"
   id="path254" />
<path
   clip-path="url(#TextBounds_5)"
   d="m 913.534,543.492 h 2.051 v 6.246 c 0.461,-0.602 1.012,-1.061 1.653,-1.377 0.64,-0.316 1.336,-0.475 2.086,-0.475 1.562,0 2.83,0.537 3.802,1.612 0.973,1.074 1.459,2.658 1.459,4.752 0,1.984 -0.48,3.632 -1.441,4.945 -0.961,1.312 -2.293,1.969 -3.996,1.969 -0.953,0 -1.758,-0.231 -2.414,-0.692 -0.391,-0.273 -0.809,-0.711 -1.254,-1.312 v 1.605 h -1.946 z m 5.485,15.808 c 1.14,0 1.994,-0.453 2.56,-1.359 0.567,-0.906 0.85,-2.101 0.85,-3.586 0,-1.32 -0.283,-2.414 -0.85,-3.281 -0.566,-0.867 -1.4,-1.301 -2.502,-1.301 -0.961,0 -1.802,0.356 -2.525,1.067 -0.723,0.71 -1.084,1.882 -1.084,3.515 0,1.18 0.148,2.137 0.445,2.871 0.555,1.383 1.59,2.074 3.106,2.074 z"
   id="path256" />
<path
   clip-path="url(#TextBounds_5)"
   d="m 932.027,559.406 c 1.398,0 2.357,-0.529 2.877,-1.588 0.519,-1.059 0.779,-2.236 0.779,-3.533 0,-1.172 -0.188,-2.125 -0.563,-2.86 -0.593,-1.156 -1.617,-1.734 -3.07,-1.734 -1.289,0 -2.226,0.492 -2.812,1.477 -0.586,0.984 -0.879,2.172 -0.879,3.562 0,1.336 0.293,2.449 0.879,3.34 0.586,0.891 1.515,1.336 2.789,1.336 z m 0.082,-11.555 c 1.617,0 2.984,0.539 4.101,1.617 1.117,1.079 1.676,2.664 1.676,4.758 0,2.024 -0.492,3.696 -1.477,5.016 -0.984,1.32 -2.511,1.98 -4.582,1.98 -1.726,0 -3.097,-0.584 -4.113,-1.752 -1.015,-1.168 -1.523,-2.736 -1.523,-4.705 0,-2.109 0.535,-3.789 1.605,-5.039 1.07,-1.25 2.508,-1.875 4.313,-1.875 z"
   id="path258" />
<path
   clip-path="url(#TextBounds_5)"
   d="m 941.73,554.636 c 0,1.344 0.285,2.469 0.855,3.375 0.571,0.907 1.485,1.36 2.742,1.36 0.977,0 1.78,-0.42 2.409,-1.26 0.629,-0.84 0.943,-2.045 0.943,-3.615 0,-1.586 -0.324,-2.76 -0.973,-3.522 -0.648,-0.761 -1.449,-1.142 -2.402,-1.142 -1.063,0 -1.924,0.406 -2.584,1.218 -0.66,0.813 -0.99,2.008 -0.99,3.586 z m 3.176,-6.644 c 0.96,0 1.765,0.203 2.414,0.609 0.375,0.235 0.8,0.645 1.277,1.231 v -6.34 h 2.027 v 17.273 h -1.898 v -1.746 c -0.492,0.774 -1.074,1.332 -1.746,1.676 -0.672,0.344 -1.442,0.516 -2.309,0.516 -1.398,0 -2.609,-0.588 -3.633,-1.764 -1.023,-1.176 -1.535,-2.74 -1.535,-4.693 0,-1.829 0.467,-3.413 1.401,-4.752 0.933,-1.34 2.267,-2.01 4.002,-2.01 z"
   id="path260" />
<path
   clip-path="url(#TextBounds_5)"
   d="m 961.581,548.215 h 2.332 c -0.297,0.804 -0.957,2.64 -1.98,5.507 -0.766,2.157 -1.406,3.914 -1.922,5.274 -1.219,3.203 -2.078,5.156 -2.578,5.859 -0.5,0.703 -1.359,1.055 -2.578,1.055 -0.297,0 -0.526,-0.012 -0.686,-0.035 -0.16,-0.024 -0.357,-0.067 -0.592,-0.129 v -1.922 c 0.368,0.101 0.633,0.164 0.797,0.187 0.164,0.024 0.309,0.036 0.434,0.036 0.391,0 0.678,-0.065 0.861,-0.194 0.184,-0.129 0.338,-0.287 0.463,-0.474 0.039,-0.063 0.18,-0.383 0.422,-0.961 0.242,-0.578 0.418,-1.008 0.527,-1.289 l -4.64,-12.914 h 2.39 l 3.364,10.218 z"
   id="path262" />
</g><g
   fill="#000000"
   opacity="1"
   stroke="none"
   id="g296"
   transform="matrix(0.53420076,0,0,0.53420076,-14.923058,-10.81665)">
<path
   clip-path="url(#TextBounds_6)"
   d="m 190.404,519.029 c 1.094,0 1.959,-0.219 2.596,-0.656 0.636,-0.438 0.955,-1.227 0.955,-2.367 0,-1.227 -0.446,-2.063 -1.336,-2.508 -0.477,-0.234 -1.113,-0.352 -1.91,-0.352 h -5.696 v 5.883 z m -7.723,-7.886 h 7.969 c 1.313,0 2.395,0.191 3.246,0.574 1.617,0.734 2.426,2.09 2.426,4.066 0,1.031 -0.213,1.875 -0.639,2.531 -0.425,0.657 -1.021,1.184 -1.787,1.582 0.672,0.274 1.178,0.633 1.518,1.079 0.34,0.445 0.529,1.168 0.568,2.168 l 0.082,2.308 c 0.024,0.656 0.078,1.145 0.164,1.465 0.141,0.547 0.391,0.898 0.75,1.055 v 0.386 h -2.859 c -0.078,-0.148 -0.141,-0.339 -0.188,-0.574 -0.047,-0.234 -0.086,-0.687 -0.117,-1.359 l -0.14,-2.871 c -0.055,-1.125 -0.473,-1.879 -1.254,-2.262 -0.446,-0.211 -1.145,-0.316 -2.098,-0.316 h -5.309 v 7.382 h -2.332 z"
   id="path266" />
<path
   clip-path="url(#TextBounds_6)"
   d="m 199.451,515.865 h 2.144 v 12.492 h -2.144 z m 0,-4.722 h 2.144 v 2.39 h -2.144 z"
   id="path268" />
<path
   clip-path="url(#TextBounds_6)"
   d="m 209.213,515.584 c 0.984,0 1.843,0.242 2.578,0.726 0.398,0.274 0.804,0.672 1.218,1.196 v -1.582 h 1.946 v 11.414 c 0,1.594 -0.235,2.851 -0.703,3.773 -0.875,1.703 -2.528,2.555 -4.957,2.555 -1.352,0 -2.489,-0.303 -3.411,-0.908 -0.921,-0.606 -1.437,-1.553 -1.546,-2.842 h 2.144 c 0.102,0.562 0.305,0.996 0.61,1.301 0.476,0.468 1.226,0.703 2.25,0.703 1.617,0 2.675,-0.57 3.175,-1.711 0.297,-0.672 0.434,-1.871 0.41,-3.598 -0.421,0.641 -0.929,1.117 -1.523,1.43 -0.594,0.312 -1.379,0.469 -2.355,0.469 -1.36,0 -2.549,-0.483 -3.569,-1.448 -1.019,-0.964 -1.529,-2.56 -1.529,-4.787 0,-2.101 0.514,-3.742 1.541,-4.922 1.027,-1.179 2.267,-1.769 3.721,-1.769 z m 3.796,6.445 c 0,-1.554 -0.32,-2.707 -0.96,-3.457 -0.641,-0.75 -1.457,-1.125 -2.45,-1.125 -1.484,0 -2.5,0.696 -3.047,2.086 -0.289,0.742 -0.433,1.715 -0.433,2.918 0,1.414 0.287,2.49 0.861,3.229 0.574,0.738 1.346,1.107 2.315,1.107 1.515,0 2.582,-0.684 3.199,-2.051 0.344,-0.773 0.515,-1.676 0.515,-2.707 z"
   id="path270" />
<path
   clip-path="url(#TextBounds_6)"
   d="m 218.131,515.865 h 2.144 v 12.492 h -2.144 z m 0,-4.722 h 2.144 v 2.39 h -2.144 z"
   id="path272" />
<path
   clip-path="url(#TextBounds_6)"
   d="m 224.799,522.228 c 0,1.344 0.285,2.469 0.855,3.375 0.57,0.907 1.484,1.36 2.742,1.36 0.977,0 1.78,-0.42 2.408,-1.26 0.629,-0.84 0.944,-2.045 0.944,-3.615 0,-1.586 -0.324,-2.76 -0.973,-3.522 -0.648,-0.761 -1.449,-1.142 -2.402,-1.142 -1.063,0 -1.924,0.406 -2.584,1.219 -0.66,0.812 -0.99,2.007 -0.99,3.585 z m 3.175,-6.644 c 0.961,0 1.766,0.203 2.414,0.609 0.375,0.235 0.801,0.645 1.278,1.231 v -6.34 h 2.027 v 17.273 h -1.898 v -1.746 c -0.493,0.774 -1.075,1.332 -1.746,1.676 -0.672,0.344 -1.442,0.516 -2.309,0.516 -1.398,0 -2.609,-0.588 -3.633,-1.764 -1.023,-1.176 -1.535,-2.74 -1.535,-4.693 0,-1.828 0.467,-3.412 1.4,-4.752 0.934,-1.34 2.268,-2.01 4.002,-2.01 z"
   id="path274" />
<path
   clip-path="url(#TextBounds_6)"
   d="m 243.314,511.084 h 2.051 v 6.246 c 0.461,-0.602 1.012,-1.061 1.652,-1.377 0.641,-0.316 1.336,-0.475 2.086,-0.475 1.563,0 2.83,0.538 3.803,1.612 0.973,1.074 1.459,2.658 1.459,4.752 0,1.984 -0.481,3.633 -1.441,4.945 -0.961,1.313 -2.293,1.969 -3.997,1.969 -0.953,0 -1.757,-0.231 -2.414,-0.692 -0.39,-0.273 -0.808,-0.711 -1.254,-1.312 v 1.605 h -1.945 z m 5.485,15.809 c 1.14,0 1.994,-0.454 2.56,-1.36 0.567,-0.906 0.85,-2.101 0.85,-3.586 0,-1.32 -0.283,-2.414 -0.85,-3.281 -0.566,-0.867 -1.4,-1.301 -2.502,-1.301 -0.961,0 -1.803,0.356 -2.525,1.067 -0.723,0.711 -1.084,1.882 -1.084,3.515 0,1.18 0.148,2.137 0.445,2.871 0.555,1.383 1.59,2.075 3.106,2.075 z"
   id="path276" />
<path
   clip-path="url(#TextBounds_6)"
   d="m 261.806,526.998 c 1.399,0 2.358,-0.529 2.877,-1.588 0.52,-1.058 0.78,-2.236 0.78,-3.533 0,-1.172 -0.188,-2.125 -0.563,-2.859 -0.594,-1.157 -1.617,-1.735 -3.07,-1.735 -1.289,0 -2.227,0.492 -2.813,1.477 -0.586,0.984 -0.879,2.172 -0.879,3.562 0,1.336 0.293,2.449 0.879,3.34 0.586,0.891 1.516,1.336 2.789,1.336 z m 0.082,-11.555 c 1.618,0 2.985,0.539 4.102,1.617 1.117,1.079 1.676,2.665 1.676,4.758 0,2.024 -0.492,3.696 -1.477,5.016 -0.984,1.32 -2.512,1.98 -4.582,1.98 -1.726,0 -3.098,-0.584 -4.113,-1.752 -1.016,-1.168 -1.524,-2.736 -1.524,-4.705 0,-2.109 0.536,-3.789 1.606,-5.039 1.07,-1.25 2.508,-1.875 4.312,-1.875 z"
   id="path278" />
<path
   clip-path="url(#TextBounds_6)"
   d="m 271.509,522.228 c 0,1.344 0.286,2.469 0.856,3.375 0.57,0.907 1.484,1.36 2.742,1.36 0.977,0 1.779,-0.42 2.408,-1.26 0.629,-0.84 0.944,-2.045 0.944,-3.615 0,-1.586 -0.325,-2.76 -0.973,-3.522 -0.648,-0.761 -1.449,-1.142 -2.402,-1.142 -1.063,0 -1.924,0.406 -2.584,1.219 -0.66,0.812 -0.991,2.007 -0.991,3.585 z m 3.176,-6.644 c 0.961,0 1.766,0.203 2.414,0.609 0.375,0.235 0.801,0.645 1.278,1.231 v -6.34 h 2.027 v 17.273 h -1.898 v -1.746 c -0.493,0.774 -1.075,1.332 -1.747,1.676 -0.671,0.344 -1.441,0.516 -2.308,0.516 -1.399,0 -2.609,-0.588 -3.633,-1.764 -1.023,-1.176 -1.535,-2.74 -1.535,-4.693 0,-1.828 0.467,-3.412 1.4,-4.752 0.934,-1.34 2.268,-2.01 4.002,-2.01 z"
   id="path280" />
<path
   clip-path="url(#TextBounds_6)"
   d="m 291.361,515.807 h 2.332 c -0.297,0.804 -0.957,2.64 -1.98,5.507 -0.766,2.157 -1.407,3.914 -1.922,5.274 -1.219,3.203 -2.078,5.156 -2.578,5.859 -0.5,0.703 -1.36,1.055 -2.579,1.055 -0.296,0 -0.525,-0.012 -0.685,-0.035 -0.16,-0.024 -0.357,-0.067 -0.592,-0.129 v -1.922 c 0.367,0.102 0.633,0.164 0.797,0.187 0.164,0.024 0.309,0.036 0.434,0.036 0.39,0 0.677,-0.065 0.861,-0.194 0.184,-0.129 0.338,-0.287 0.463,-0.474 0.039,-0.063 0.18,-0.383 0.422,-0.961 0.242,-0.578 0.418,-1.008 0.527,-1.289 l -4.641,-12.914 h 2.391 l 3.363,10.218 z"
   id="path282" />
<path
   clip-path="url(#TextBounds_6)"
   d="m 302.189,515.807 h 2.086 v 1.781 c 0.5,-0.617 0.953,-1.067 1.359,-1.348 0.696,-0.476 1.485,-0.715 2.368,-0.715 1,0 1.804,0.246 2.414,0.739 0.343,0.281 0.656,0.695 0.937,1.242 0.469,-0.672 1.02,-1.17 1.653,-1.494 0.632,-0.325 1.343,-0.487 2.132,-0.487 1.688,0 2.836,0.61 3.446,1.828 0.328,0.657 0.492,1.54 0.492,2.649 v 8.355 h -2.192 v -8.718 c 0,-0.836 -0.208,-1.411 -0.626,-1.723 -0.418,-0.313 -0.928,-0.469 -1.53,-0.469 -0.828,0 -1.541,0.278 -2.138,0.832 -0.598,0.555 -0.897,1.481 -0.897,2.778 v 7.3 h -2.144 v -8.191 c 0,-0.852 -0.102,-1.473 -0.305,-1.863 -0.32,-0.586 -0.918,-0.879 -1.793,-0.879 -0.797,0 -1.522,0.308 -2.174,0.926 -0.652,0.617 -0.978,1.734 -0.978,3.351 v 6.656 h -2.11 z"
   id="path284" />
<path
   clip-path="url(#TextBounds_6)"
   d="m 327.162,526.998 c 1.398,0 2.357,-0.529 2.877,-1.588 0.519,-1.058 0.779,-2.236 0.779,-3.533 0,-1.172 -0.187,-2.125 -0.562,-2.859 -0.594,-1.157 -1.618,-1.735 -3.071,-1.735 -1.289,0 -2.226,0.492 -2.812,1.477 -0.586,0.984 -0.879,2.172 -0.879,3.562 0,1.336 0.293,2.449 0.879,3.34 0.586,0.891 1.515,1.336 2.789,1.336 z m 0.082,-11.555 c 1.617,0 2.984,0.539 4.101,1.617 1.118,1.079 1.676,2.665 1.676,4.758 0,2.024 -0.492,3.696 -1.476,5.016 -0.985,1.32 -2.512,1.98 -4.582,1.98 -1.727,0 -3.098,-0.584 -4.114,-1.752 -1.015,-1.168 -1.523,-2.736 -1.523,-4.705 0,-2.109 0.535,-3.789 1.605,-5.039 1.071,-1.25 2.508,-1.875 4.313,-1.875 z"
   id="path286" />
<path
   clip-path="url(#TextBounds_6)"
   d="m 335.951,512.303 h 2.133 v 3.504 h 2.004 v 1.722 h -2.004 v 8.192 c 0,0.437 0.148,0.73 0.445,0.879 0.164,0.085 0.438,0.128 0.82,0.128 0.102,0 0.211,-10e-4 0.328,-0.005 0.118,-0.004 0.254,-0.014 0.411,-0.03 v 1.664 c -0.243,0.071 -0.495,0.121 -0.756,0.153 -0.262,0.031 -0.545,0.047 -0.85,0.047 -0.984,0 -1.652,-0.252 -2.004,-0.756 -0.351,-0.504 -0.527,-1.158 -0.527,-1.963 v -8.309 h -1.699 v -1.722 h 1.699 z"
   id="path288" />
<path
   clip-path="url(#TextBounds_6)"
   d="m 342.197,515.865 h 2.145 v 12.492 h -2.145 z m 0,-4.722 h 2.145 v 2.39 h -2.145 z"
   id="path290" />
<path
   clip-path="url(#TextBounds_6)"
   d="m 352.509,526.998 c 1.399,0 2.358,-0.529 2.877,-1.588 0.52,-1.058 0.78,-2.236 0.78,-3.533 0,-1.172 -0.188,-2.125 -0.563,-2.859 -0.594,-1.157 -1.617,-1.735 -3.07,-1.735 -1.289,0 -2.227,0.492 -2.813,1.477 -0.586,0.984 -0.878,2.172 -0.878,3.562 0,1.336 0.292,2.449 0.878,3.34 0.586,0.891 1.516,1.336 2.789,1.336 z m 0.083,-11.555 c 1.617,0 2.984,0.539 4.101,1.617 1.117,1.079 1.676,2.665 1.676,4.758 0,2.024 -0.492,3.696 -1.477,5.016 -0.984,1.32 -2.511,1.98 -4.582,1.98 -1.726,0 -3.097,-0.584 -4.113,-1.752 -1.016,-1.168 -1.523,-2.736 -1.523,-4.705 0,-2.109 0.535,-3.789 1.605,-5.039 1.07,-1.25 2.508,-1.875 4.313,-1.875 z"
   id="path292" />
<path
   clip-path="url(#TextBounds_6)"
   d="m 360.877,515.807 h 2.004 v 1.781 c 0.593,-0.735 1.222,-1.262 1.886,-1.582 0.664,-0.321 1.403,-0.481 2.215,-0.481 1.781,0 2.985,0.621 3.61,1.864 0.343,0.679 0.515,1.652 0.515,2.918 v 8.05 h -2.144 v -7.91 c 0,-0.765 -0.114,-1.383 -0.34,-1.851 -0.375,-0.782 -1.055,-1.172 -2.039,-1.172 -0.5,0 -0.91,0.051 -1.231,0.152 -0.578,0.172 -1.086,0.516 -1.523,1.031 -0.352,0.414 -0.58,0.842 -0.686,1.284 -0.105,0.441 -0.158,1.072 -0.158,1.892 v 6.574 h -2.109 z"
   id="path294" />
</g><path
   style="fill:none;stroke:#000000;stroke-width:0.534201px;stroke-linecap:butt;stroke-linejoin:miter;stroke-opacity:1;marker-end:url(#Arrow1Lend)"
   d="M 133.58208,67.087448 153.90232,16.191293"
   id="path2249" /><path
   style="clip-rule:evenodd;fill:none;fill-rule:nonzero;stroke:#000000;stroke-width:0.534201px;stroke-linecap:butt;stroke-linejoin:miter;stroke-opacity:1;marker-end:url(#Arrow1Lend-1)"
   d="M 133.62656,67.342219 173.46449,29.708856"
   id="path2249-6"
   inkscape:transform-center-x="-38.410662"
   inkscape:transform-center-y="-35.174351" /><text
   xml:space="preserve"
   style="font-style:normal;font-weight:normal;font-size:21.368px;line-height:1.25;font-family:sans-serif;fill:#000000;fill-opacity:1;stroke:none;stroke-width:0.534201"
   x="151.20581"
   y="14.147973"
   id="text4698"><tspan
     sodipodi:role="line"
     id="tspan4696"
     x="151.20581"
     y="14.147973"
     style="font-style:normal;font-variant:normal;font-weight:bold;font-stretch:normal;font-size:21.368px;font-family:'Times New Roman';-inkscape-font-specification:'Times New Roman, Normal';font-variant-ligatures:normal;font-variant-caps:normal;font-variant-numeric:normal;font-variant-east-asian:normal;stroke-width:0.534201">F</tspan></text><text
   xml:space="preserve"
   style="font-style:normal;font-variant:normal;font-weight:normal;font-stretch:normal;font-size:21.368px;line-height:1.25;font-family:'Times New Roman';-inkscape-font-specification:'Times New Roman, ';fill:#000000;fill-opacity:1;stroke:none;stroke-width:0.534201"
   x="173.46448"
   y="29.708855"
   id="text17972"><tspan
     sodipodi:role="line"
     id="tspan17970"
     x="173.46448"
     y="29.708855"
     style="stroke-width:0.534201">d<tspan
   style="font-weight:bold;stroke-width:0.534201"
   id="tspan34106">u</tspan></tspan></text><circle
   style="fill:#000000;stroke-width:1.00951;stroke-linecap:round;stroke-dasharray:3.02854, 1.00951"
   id="path38140"
   cx="240.79442"
   cy="169.29523"
   r="4.2736063" /><circle
   style="clip-rule:evenodd;fill:#000000;fill-rule:nonzero;stroke-width:1.00951;stroke-linecap:round;stroke-linejoin:round;stroke-dasharray:3.02854, 1.00951"
   id="path38140-7"
   cx="246.50684"
   cy="191.72823"
   r="4.2736063" /><circle
   style="clip-rule:evenodd;fill:#000000;fill-rule:nonzero;stroke-width:1.00951;stroke-linecap:round;stroke-linejoin:round;stroke-dasharray:3.02854, 1.00951"
   id="path38140-7-5"
   cx="256.16833"
   cy="208.64247"
   r="4.2736063" /><circle
   style="clip-rule:evenodd;fill:#000000;fill-rule:nonzero;stroke-width:1.00951;stroke-linecap:round;stroke-linejoin:round;stroke-dasharray:3.02854, 1.00951"
   id="path38140-7-5-4"
   cx="273.16879"
   cy="221.98976"
   r="4.2736063" /><circle
   style="clip-rule:evenodd;fill:#000000;fill-rule:nonzero;stroke-width:1.00951;stroke-linecap:round;stroke-linejoin:round;stroke-dasharray:3.02854, 1.00951"
   id="path38140-7-5-4-0"
   cx="304.65912"
   cy="234.58836"
   r="4.2736063" /><circle
   style="clip-rule:evenodd;fill:#000000;fill-rule:nonzero;stroke-width:1.00951;stroke-linecap:round;stroke-linejoin:round;stroke-dasharray:3.02854, 1.00951"
   id="path38140-7-5-4-0-1"
   cx="322.73575"
   cy="241.59409"
   r="4.2736063" /><circle
   style="clip-rule:evenodd;fill:#000000;fill-rule:nonzero;stroke-width:1.00951;stroke-linecap:round;stroke-linejoin:round;stroke-dasharray:3.02854, 1.00951"
   id="path38140-7-5-4-0-1-2"
   cx="342.33487"
   cy="249.04314"
   r="4.2736063" /></svg>
