<?xml version="1.0" encoding="UTF-8" standalone="no"?> <!-- Created with Vectornator for iOS (http://vectornator.io/) --><!DOCTYPE svg PUBLIC "-//W3C//DTD SVG 1.1//EN" "http://www.w3.org/Graphics/SVG/1.1/DTD/svg11.dtd">
<svg height="100%" style="fill-rule:nonzero;clip-rule:evenodd;stroke-linecap:round;stroke-linejoin:round;" xmlns:xlink="http://www.w3.org/1999/xlink" xmlns="http://www.w3.org/2000/svg" xml:space="preserve" width="100%" xmlns:vectornator="http://vectornator.io" version="1.1" viewBox="0 0 680.4 595.35">
<metadata>
<vectornator:setting key="DimensionsVisible" value="1"/>
<vectornator:setting key="PencilOnly" value="0"/>
<vectornator:setting key="SnapToPoints" value="0"/>
<vectornator:setting key="OutlineMode" value="0"/>
<vectornator:setting key="CMYKEnabledKey" value="0"/>
<vectornator:setting key="RulersVisible" value="1"/>
<vectornator:setting key="SnapToEdges" value="0"/>
<vectornator:setting key="GuidesVisible" value="1"/>
<vectornator:setting key="DisplayWhiteBackground" value="1"/>
<vectornator:setting key="doHistoryDisabled" value="0"/>
<vectornator:setting key="SnapToGuides" value="1"/>
<vectornator:setting key="TimeLapseWatermarkDisabled" value="0"/>
<vectornator:setting key="Units" value="Millimeters"/>
<vectornator:setting key="DynamicGuides" value="0"/>
<vectornator:setting key="IsolateActiveLayer" value="0"/>
<vectornator:setting key="SnapToGrid" value="0"/>
</metadata>
<defs/>
<g id="Layer 1" vectornator:layerName="Layer 1">
<path stroke="#1a4545" stroke-width="1" d="M59.0083+171.481C71.864+154.659+87.5479+143.756+119.173+187.992C150.798+232.228+3.47176+255.281+34.0683+206.683C64.6648+158.086+46.1526+188.303+59.0083+171.481Z" fill="none" stroke-linecap="butt" opacity="1" stroke-linejoin="round"/>
<path stroke="#1a4545" stroke-width="1" d="M59.0083+171.481C71.864+154.659+87.5479+143.756+119.173+187.992C150.798+232.228+3.47176+255.281+34.0683+206.683C64.6648+158.086+46.1526+188.303+59.0083+171.481Z" fill="none" stroke-linecap="butt" opacity="1" stroke-linejoin="round"/>
<path stroke="#4f192a" stroke-width="1" d="M28.3668+262.542C28.3668+204.657+75.9947+157.731+134.747+157.731C193.499+157.731+241.127+204.657+241.127+262.542C241.127+320.428+193.499+367.354+134.747+367.354C75.9947+367.354+28.3668+320.428+28.3668+262.542Z" fill="#94d0ec" stroke-linecap="round" opacity="1" stroke-linejoin="round" stroke-dasharray="5"/>
<path stroke="#1a4545" stroke-width="1" d="M59.0083+171.481C71.864+154.659+87.5479+143.756+119.173+187.992C150.798+232.228+3.47176+255.281+34.0683+206.683C64.6648+158.086+46.1526+188.303+59.0083+171.481Z" fill="#ecd294" stroke-linecap="butt" opacity="1" stroke-linejoin="round"/>
<path stroke="#1a4545" stroke-width="1" d="M46.8286+341.784C25.6911+340.576+7.86772+333.706+26.7547+282.713C45.6416+231.72+147.355+340.765+89.9606+342.69C32.5658+344.614+67.9661+342.993+46.8286+341.784Z" fill="none" stroke-linecap="butt" opacity="1" stroke-linejoin="round"/>
<path stroke="#1a4545" stroke-width="1" d="M46.8286+341.784C25.6911+340.576+7.86772+333.706+26.7547+282.713C45.6416+231.72+147.355+340.765+89.9606+342.69C32.5658+344.614+67.9661+342.993+46.8286+341.784Z" fill="none" stroke-linecap="butt" opacity="1" stroke-linejoin="round"/>
<path stroke="#1a4545" stroke-width="1" d="M46.8286+341.784C25.6911+340.576+7.86772+333.706+26.7547+282.713C45.6416+231.72+147.355+340.765+89.9606+342.69C32.5658+344.614+67.9661+342.993+46.8286+341.784Z" fill="#ecd294" stroke-linecap="butt" opacity="1" stroke-linejoin="round"/>
<path stroke="#1a4545" stroke-width="1" d="M155.505+371.406C136.431+370.487+120.348+365.268+137.391+326.524C154.434+287.78+246.218+370.631+194.427+372.093C142.635+373.556+174.579+372.324+155.505+371.406Z" fill="none" stroke-linecap="butt" opacity="1" stroke-linejoin="round"/>
<path stroke="#1a4545" stroke-width="1" d="M155.505+371.406C136.431+370.487+120.348+365.268+137.391+326.524C154.434+287.78+246.218+370.631+194.427+372.093C142.635+373.556+174.579+372.324+155.505+371.406Z" fill="none" stroke-linecap="butt" opacity="1" stroke-linejoin="round"/>
<path stroke="#1a4545" stroke-width="1" d="M155.505+371.406C136.431+370.487+120.348+365.268+137.391+326.524C154.434+287.78+246.218+370.631+194.427+372.093C142.635+373.556+174.579+372.324+155.505+371.406Z" fill="none" stroke-linecap="butt" opacity="1" stroke-linejoin="round"/>
<path stroke="#1a4545" stroke-width="1" d="M155.505+371.406C136.431+370.487+120.348+365.268+137.391+326.524C154.434+287.78+246.218+370.631+194.427+372.093C142.635+373.556+174.579+372.324+155.505+371.406Z" fill="none" stroke-linecap="butt" opacity="1" stroke-linejoin="round"/>
<path stroke="#1a4545" stroke-width="1" d="M155.505+371.406C136.431+370.487+120.348+365.268+137.391+326.524C154.434+287.78+246.218+370.631+194.427+372.093C142.635+373.556+174.579+372.324+155.505+371.406Z" fill="none" stroke-linecap="butt" opacity="1" stroke-linejoin="round"/>
<path stroke="#1a4545" stroke-width="1" d="M155.505+371.406C136.431+370.487+120.348+365.268+137.391+326.524C154.434+287.78+246.218+370.631+194.427+372.093C142.635+373.556+174.579+372.324+155.505+371.406Z" fill="none" stroke-linecap="butt" opacity="1" stroke-linejoin="round"/>
<path stroke="#1a4545" stroke-width="1" d="M237.947+287.927C225.815+307.466+210.136+321.138+172.477+278.729C134.818+236.319+289.343+191.758+261.249+247.308C233.156+302.858+250.079+268.387+237.947+287.927Z" fill="none" stroke-linecap="butt" opacity="1" stroke-linejoin="round"/>
<path stroke="#1a4545" stroke-width="1" d="M237.947+287.927C225.815+307.466+210.136+321.138+172.477+278.729C134.818+236.319+289.343+191.758+261.249+247.308C233.156+302.858+250.079+268.387+237.947+287.927Z" fill="none" stroke-linecap="butt" opacity="1" stroke-linejoin="round"/>
<path stroke="#1a4545" stroke-width="1" d="M237.947+287.927C225.815+307.466+210.136+321.138+172.477+278.729C134.818+236.319+289.343+191.758+261.249+247.308C233.156+302.858+250.079+268.387+237.947+287.927Z" fill="none" stroke-linecap="butt" opacity="1" stroke-linejoin="round"/>
<path stroke="#1a4545" stroke-width="1" d="M237.947+287.927C225.815+307.466+210.136+321.138+172.477+278.729C134.818+236.319+289.343+191.758+261.249+247.308C233.156+302.858+250.079+268.387+237.947+287.927Z" fill="none" stroke-linecap="butt" opacity="1" stroke-linejoin="round"/>
<path stroke="#1a4545" stroke-width="1" d="M237.947+287.927C225.815+307.466+210.136+321.138+172.477+278.729C134.818+236.319+289.343+191.758+261.249+247.308C233.156+302.858+250.079+268.387+237.947+287.927Z" fill="none" stroke-linecap="butt" opacity="1" stroke-linejoin="round"/>
<path stroke="#1a4545" stroke-width="1" d="M237.947+287.927C225.815+307.466+210.136+321.138+172.477+278.729C134.818+236.319+289.343+191.758+261.249+247.308C233.156+302.858+250.079+268.387+237.947+287.927Z" fill="#ecd294" stroke-linecap="butt" opacity="1" stroke-linejoin="round"/>
<path stroke="#1a4545" stroke-width="1" d="M80.5803+251.21C80.5803+241.787+90.0599+234.148+101.754+234.148C113.447+234.148+122.927+241.787+122.927+251.21C122.927+260.633+113.447+268.272+101.754+268.272C90.0599+268.272+80.5803+260.633+80.5803+251.21Z" fill="#ecd294" stroke-linecap="round" opacity="1" stroke-linejoin="round"/>
<path stroke="#1a4545" stroke-width="1" d="M155.505+371.406C136.431+370.487+120.348+365.268+137.391+326.524C154.434+287.78+246.218+370.631+194.427+372.093C142.635+373.556+174.579+372.324+155.505+371.406Z" fill="none" stroke-linecap="butt" opacity="1" stroke-linejoin="round"/>
<path stroke="#1a4545" stroke-width="1" d="M155.505+371.406C136.431+370.487+120.348+365.268+137.391+326.524C154.434+287.78+246.218+370.631+194.427+372.093C142.635+373.556+174.579+372.324+155.505+371.406Z" fill="none" stroke-linecap="butt" opacity="1" stroke-linejoin="round"/>
<path stroke="#1a4545" stroke-width="1" d="M155.505+371.406C136.431+370.487+120.348+365.268+137.391+326.524C154.434+287.78+246.218+370.631+194.427+372.093C142.635+373.556+174.579+372.324+155.505+371.406Z" fill="none" stroke-linecap="butt" opacity="1" stroke-linejoin="round"/>
<path stroke="#1a4545" stroke-width="1" d="M155.505+371.406C136.431+370.487+120.348+365.268+137.391+326.524C154.434+287.78+246.218+370.631+194.427+372.093C142.635+373.556+174.579+372.324+155.505+371.406Z" fill="none" stroke-linecap="butt" opacity="1" stroke-linejoin="round"/>
<path stroke="#1a4545" stroke-width="1" d="M155.505+371.406C136.431+370.487+120.348+365.268+137.391+326.524C154.434+287.78+246.218+370.631+194.427+372.093C142.635+373.556+174.579+372.324+155.505+371.406Z" fill="none" stroke-linecap="butt" opacity="1" stroke-linejoin="round"/>
<path stroke="#1a4545" stroke-width="1" d="M155.505+371.406C136.431+370.487+120.348+365.268+137.391+326.524C154.434+287.78+246.218+370.631+194.427+372.093C142.635+373.556+174.579+372.324+155.505+371.406Z" fill="#ecd294" stroke-linecap="butt" opacity="1" stroke-linejoin="round"/>
<path stroke="#1a4545" stroke-width="1" d="M155.817+200.469C155.817+192.314+162.438+185.703+170.604+185.703C178.771+185.703+185.392+192.314+185.392+200.469C185.392+208.625+178.771+215.236+170.604+215.236C162.438+215.236+155.817+208.625+155.817+200.469Z" fill="#ecd294" stroke-linecap="round" opacity="1" stroke-linejoin="round"/>
<path stroke="#1a4545" stroke-width="1" d="M197.753+250.182C198.602+251.88+200.219+259.784+200.219+262.105" fill="none" stroke-linecap="round" opacity="1" stroke-linejoin="round"/>
<path stroke="#1a4545" stroke-width="1" d="M199.808+254.91C199.038+254.115+198.879+252.891+198.575+251.826C197.207+247.039+205.478+247.243+200.63+253.06C200.382+253.358+200.196+253.882+199.808+253.882C199.502+253.882+200.035+253.305+200.219+253.06C200.952+252.083+203.169+250.665+204.331+251.826C206.93+254.426+204.058+259.3+199.808+254.91Z" fill="none" stroke-linecap="round" opacity="1" stroke-linejoin="round"/>
<path stroke="#1a4545" stroke-width="1" d="M141.428+168.778C138.456+170.264+138.237+177.803+134.027+178.645C130.619+179.327+129.82+172.784+133.205+171.656C137.552+170.207+140.372+179.79+145.128+177.412" fill="none" stroke-linecap="round" opacity="1" stroke-linejoin="round"/>
<path stroke="#1a4545" stroke-width="1" d="M199.808+155.211C197.85+155.211+197.927+154.929+196.108+156.444C190.09+161.459+201.381+162.516+202.686+164.256C204.857+167.15+199.44+168.892+197.341+168.367C196.165+168.073+195.658+166.086+194.463+165.489" fill="none" stroke-linecap="round" opacity="1" stroke-linejoin="round"/>
<path stroke="#1a4545" stroke-width="1" d="M208.442+166.106C205.803+165.666+204.004+170.435+206.797+170.834C209.397+171.205+211.221+166.569+208.442+166.106Z" fill="none" stroke-linecap="round" opacity="1" stroke-linejoin="round"/>
<path stroke="#1a4545" stroke-width="1" d="M208.853+146.988C208.853+149.548+207.824+152.043+206.797+154.388C204.653+159.289+198.599+153.523+206.386+152.744C206.795+152.703+207.224+152.631+207.62+152.744C209.893+153.394+211.651+155.662+214.198+154.388" fill="none" stroke-linecap="round" opacity="1" stroke-linejoin="round"/>
<path stroke="#1a4545" stroke-width="1" d="M223.654+142.877C223.155+145.867+221.739+152.333+217.487+152.333C216.038+152.333+215.569+148.249+216.665+147.81C219.09+146.84+223.923+150.412+226.121+151.511" fill="none" stroke-linecap="round" opacity="1" stroke-linejoin="round"/>
<path stroke="#1a4545" stroke-width="1" d="M232.699+227.57C233.92+228.791+233.427+228.016+233.932+230.036" fill="none" stroke-linecap="round" opacity="1" stroke-linejoin="round"/>
<path stroke="#1a4545" stroke-width="1" d="M235.165+235.381C235.165+237.459+234.992+236.506+235.577+238.259" fill="none" stroke-linecap="round" opacity="1" stroke-linejoin="round"/>
<path stroke="#1a4545" stroke-width="1" d="M236.399+243.193L236.399+244.426L236.81+246.893L236.81+248.126L236.81+248.126" fill="none" stroke-linecap="round" opacity="1" stroke-linejoin="round"/>
<path stroke="#1a4545" stroke-width="1" d="M237.838+255.321C238.271+255.104+237.975+254.225+237.632+253.882C237.29+253.539+237.404+255.538+237.838+255.321Z" fill="none" stroke-linecap="round" opacity="1" stroke-linejoin="round"/>
<path stroke="#1a4545" stroke-width="1" d="M237.632+263.338C237.632+264.571+237.632+265.805+237.632+267.038" fill="none" stroke-linecap="round" opacity="1" stroke-linejoin="round"/>
<path stroke="#1a4545" stroke-width="1" d="M237.221+272.383C237.221+273.342+237.221+274.301+237.221+275.261" fill="none" stroke-linecap="round" opacity="1" stroke-linejoin="round"/>
<path stroke="#1a4545" stroke-width="1" d="M238.043+278.55C238.043+281.182+238.061+284.253+237.221+286.772" fill="none" stroke-linecap="round" opacity="1" stroke-linejoin="round"/>
<path stroke="#1a4545" stroke-width="1" d="M239.277+251.826C241.928+250.942+244.745+250.661+247.499+250.182C250.474+249.664+250.903+249.515+254.489+249.771C259.981+250.163+252.264+259.65+253.666+262.105C254.658+263.84+260.881+261.02+261.478+260.871C268.317+259.161+275.765+258.987+282.445+256.76" fill="none" stroke-linecap="round" opacity="1" stroke-linejoin="round"/>
<path stroke="#1a4545" stroke-width="1" d="M276.69+254.704C278.949+256.963+281.741+254.763+284.09+255.938C284.478+256.131+283.873+256.783+283.679+257.171C282.593+259.343+280.682+261.109+279.567+263.338" fill="none" stroke-linecap="round" opacity="1" stroke-linejoin="round"/>
<path stroke="#1a4545" stroke-width="1" d="M299.713+246.071C296.144+246.071+292.537+249.683+293.957+253.471C294.048+253.713+302.18+252.458+302.18+257.582C302.18+260.336+297.465+263.447+294.779+262.105C294.166+261.798+294.03+260.945+293.546+260.46" fill="none" stroke-linecap="round" opacity="1" stroke-linejoin="round"/>
<path stroke="#1a4545" stroke-width="1" d="M308.758+256.965C305.424+256.651+305.361+262.475+308.758+263.749C311.834+264.903+314.333+257.491+308.758+256.965Z" fill="none" stroke-linecap="round" opacity="1" stroke-linejoin="round"/>
<path stroke="#1a4545" stroke-width="1" d="M304.646+239.492C305.007+243.096+306.291+246.608+306.291+250.182" fill="none" stroke-linecap="round" opacity="1" stroke-linejoin="round"/>
<path stroke="#1a4545" stroke-width="1" d="M306.085+243.809C305.11+242.684+304.311+240.759+304.646+239.081C304.869+237.966+307.707+235.214+308.758+236.615C310.314+238.689+308.073+240.313+307.524+241.959C307.291+242.659+308.849+241.241+309.58+241.137C310.69+240.978+311.817+240.742+311.636+242.37C311.111+247.089+308.098+246.133+306.085+243.809Z" fill="none" stroke-linecap="round" opacity="1" stroke-linejoin="round"/>
<path stroke="#1a4545" stroke-width="1" d="M315.747+235.792C315.747+240.923+317.391+245.871+317.391+251.004" fill="none" stroke-linecap="round" opacity="1" stroke-linejoin="round"/>
<path stroke="#1a4545" stroke-width="1" d="M316.98+240.726C316.285+239.18+315.241+237.41+315.747+235.792C316.113+234.622+317.815+234.037+319.036+234.148C319.832+234.22+320.076+235.428+320.269+236.203C320.477+237.033+318.137+239.751+318.214+239.904C319.252+241.98+321.421+237.602+322.325+240.315C322.637+241.251+320.593+245.017+319.447+244.015C318.416+243.112+317.543+241.976+316.98+240.726Z" fill="none" stroke-linecap="round" opacity="1" stroke-linejoin="round"/>
<path stroke="#1a4545" stroke-width="1" d="M36.1783+225.925L37.0005+223.869L37.8228+221.814L38.6451+219.347L38.6451+219.347" fill="none" stroke-linecap="round" opacity="1" stroke-linejoin="round"/>
<path stroke="#1a4545" stroke-width="1" d="M41.523+214.413L42.3452+214.002L43.5786+211.947L43.9898+210.713L43.9898+210.713" fill="none" stroke-linecap="round" opacity="1" stroke-linejoin="round"/>
<path stroke="#1a4545" stroke-width="1" d="M48.5122+202.902L49.3345+202.08L49.7456+200.846L50.979+200.024L51.8012+198.791L51.8012+198.791" fill="none" stroke-linecap="round" opacity="1" stroke-linejoin="round"/>
<path stroke="#1a4545" stroke-width="1" d="M56.7348+191.801C57.8796+190.084+57.2077+190.917+58.7905+189.335" fill="none" stroke-linecap="round" opacity="1" stroke-linejoin="round"/>
<path stroke="#1a4545" stroke-width="1" d="M64.9574+183.168C66.3925+182.45+65.5346+182.94+67.4242+181.523" fill="none" stroke-linecap="round" opacity="1" stroke-linejoin="round"/>
<path stroke="#1a4545" stroke-width="1" d="M72.7689+177.823C73.5911+177.412+74.4134+177.001+75.2357+176.589" fill="none" stroke-linecap="round" opacity="1" stroke-linejoin="round"/>
<path stroke="#1a4545" stroke-width="1" d="M78.9358+174.534C81.5959+172.539+84.5826+170.683+87.5696+169.189" fill="none" stroke-linecap="round" opacity="1" stroke-linejoin="round"/>
<path stroke="#1a4545" stroke-width="1" d="M92.9143+165.489C93.4624+165.352+94.0106+165.215+94.5588+165.078" fill="none" stroke-linecap="round" opacity="1" stroke-linejoin="round"/>
<path stroke="#1a4545" stroke-width="1" d="M31.6558+283.222C32.1413+285.164+31.8143+284.361+32.4781+285.689" fill="none" stroke-linecap="round" opacity="1" stroke-linejoin="round"/>
<path stroke="#1a4545" stroke-width="1" d="M38.2339+300.9L38.2339+302.134L38.6451+302.956L39.4673+304.189L39.4673+304.189" fill="none" stroke-linecap="round" opacity="1" stroke-linejoin="round"/>
<path stroke="#1a4545" stroke-width="1" d="M41.523+308.301C41.7971+308.575+42.0712+308.849+42.3452+309.123" fill="none" stroke-linecap="round" opacity="1" stroke-linejoin="round"/>
<path stroke="#1a4545" stroke-width="1" d="M46.8677+317.757L47.2788+318.99L47.6899+319.812L49.3345+321.457L49.7456+322.279L50.979+323.513L50.979+323.513" fill="none" stroke-linecap="round" opacity="1" stroke-linejoin="round"/>
<path stroke="#1a4545" stroke-width="1" d="M55.0903+328.446L55.5014+329.268L56.3237+330.091L57.5571+331.324L57.5571+331.324" fill="none" stroke-linecap="round" opacity="1" stroke-linejoin="round"/>
<path stroke="#1a4545" stroke-width="1" d="M61.6684+334.613C62.8373+335.198+62.2739+334.808+63.3129+335.846" fill="none" stroke-linecap="round" opacity="1" stroke-linejoin="round"/>
<path stroke="#1a4545" stroke-width="1" d="M64.5463+337.902L65.3685+338.313L65.7797+339.135L66.1908+339.958L67.0131+340.369L67.8353+340.78L67.8353+340.78" fill="none" stroke-linecap="round" opacity="1" stroke-linejoin="round"/>
<path stroke="#1a4545" stroke-width="1" d="M140.605+365.448C144.07+365.448+142.282+365.674+145.95+364.626" fill="none" stroke-linecap="round" opacity="1" stroke-linejoin="round"/>
<path stroke="#1a4545" stroke-width="1" d="M151.295+363.392C153.685+362.197+152.335+362.671+155.406+362.159" fill="none" stroke-linecap="round" opacity="1" stroke-linejoin="round"/>
<path stroke="#1a4545" stroke-width="1" d="M163.218+359.692C165.283+359.176+164.326+359.46+166.095+358.87" fill="none" stroke-linecap="round" opacity="1" stroke-linejoin="round"/>
<path stroke="#1a4545" stroke-width="1" d="M171.851+357.225L173.496+356.814L175.14+356.403L175.963+355.992L175.963+355.992" fill="none" stroke-linecap="round" opacity="1" stroke-linejoin="round"/>
<path stroke="#1a4545" stroke-width="1" d="M180.485+353.936L181.718+353.936L183.363+353.114L184.185+352.703L184.185+352.703" fill="none" stroke-linecap="round" opacity="1" stroke-linejoin="round"/>
<path stroke="#1a4545" stroke-width="1" d="M186.652+351.881L187.885+351.058L188.708+350.647L189.53+350.236L190.763+349.825L190.763+349.825" fill="none" stroke-linecap="round" opacity="1" stroke-linejoin="round"/>
<path stroke="#1a4545" stroke-width="1" d="M195.286+347.358L196.108+346.947L198.575+346.125L199.808+345.302L199.808+345.302" fill="none" stroke-linecap="round" opacity="1" stroke-linejoin="round"/>
<path stroke="#1a4545" stroke-width="1" d="M105.021+291.381C103.073+291.381+100.716+295.132+101.725+297.149C102.8+299.3+106.964+295.561+107.905+298.385C108.911+301.403+105.164+303.203+103.785+300.445" fill="none" stroke-linecap="round" opacity="1" stroke-linejoin="round"/>
<path stroke="#1a4545" stroke-width="1" d="M110.377+281.904C110.377+289.966+103.136+291.443+106.257+285.201C107.748+282.219+114.909+292.242+114.909+288.909" fill="none" stroke-linecap="round" opacity="1" stroke-linejoin="round"/>
<path stroke="#1a4545" stroke-width="1" d="M116.969+281.492C116.969+284.339+118.481+287.092+119.441+289.733" fill="none" stroke-linecap="round" opacity="1" stroke-linejoin="round"/>
<path stroke="#1a4545" stroke-width="1" d="M117.793+284.995C116.615+283.738+114.963+281.797+115.733+280.256C116.213+279.297+117.61+277.304+118.205+278.196C118.908+279.251+119.3+281.376+119.029+282.729C118.894+283.402+118.1+284.991+117.793+284.377C117.1+282.989+120.835+282.15+121.501+282.317C123.129+282.723+124.143+287.82+121.089+286.849C119.888+286.466+118.656+285.914+117.793+284.995Z" fill="none" stroke-linecap="round" opacity="1" stroke-linejoin="round"/>
<path stroke="#1a4545" stroke-width="1" d="M106.257+315.689C112.725+315.689+114.085+309.498+114.085+304.565C114.085+304.203+114.33+302.048+114.085+301.681C112.999+300.051+111.654+305.842+111.613+305.801C110.988+305.176+113.001+299.209+113.673+299.209C114.257+299.209+114.042+300.682+114.085+300.857C114.528+302.628+115.467+303.402+116.969+304.153" fill="none" stroke-linecap="round" opacity="1" stroke-linejoin="round"/>
<path stroke="#1a4545" stroke-width="1" d="M399.885+128.844C399.885+119.421+409.365+111.782+421.059+111.782C432.752+111.782+442.232+119.421+442.232+128.844C442.232+138.267+432.752+145.906+421.059+145.906C409.365+145.906+399.885+138.267+399.885+128.844Z" fill="none" stroke-linecap="round" opacity="1" stroke-linejoin="round"/>
<path stroke="#1a4545" stroke-width="1" d="M475.122+78.1035C475.122+69.9483+481.743+63.3372+489.909+63.3372C498.076+63.3372+504.697+69.9483+504.697+78.1035C504.697+86.2587+498.076+92.8698+489.909+92.8698C481.743+92.8698+475.122+86.2587+475.122+78.1035Z" fill="none" stroke-linecap="round" opacity="1" stroke-linejoin="round"/>
<path stroke="#1a4545" stroke-width="1" d="M517.058+127.816C517.907+129.514+519.524+137.418+519.524+139.739" fill="none" stroke-linecap="round" opacity="1" stroke-linejoin="round"/>
<path stroke="#1a4545" stroke-width="1" d="M519.113+132.544C518.343+131.749+518.184+130.525+517.88+129.46C516.512+124.673+524.783+124.877+519.935+130.694C519.687+130.992+519.501+131.516+519.113+131.516C518.807+131.516+519.34+130.939+519.524+130.694C520.257+129.717+522.474+128.299+523.636+129.46C526.235+132.06+523.364+136.934+519.113+132.544Z" fill="none" stroke-linecap="round" opacity="1" stroke-linejoin="round"/>
<path stroke="#1a4545" stroke-width="1" d="M460.733+46.4121C457.761+47.8981+457.542+55.4373+453.332+56.2792C449.924+56.9608+449.125+50.4183+452.51+49.29C456.857+47.8411+459.677+57.4237+464.433+55.0458" fill="none" stroke-linecap="round" opacity="1" stroke-linejoin="round"/>
<path stroke="#1a4545" stroke-width="1" d="M519.113+32.8448C517.155+32.8448+517.232+32.5627+515.413+34.0782C509.395+39.0933+520.686+40.1499+521.991+41.8897C524.162+44.7841+518.746+46.5257+516.646+46.001C515.47+45.7069+514.963+43.7201+513.769+43.123" fill="none" stroke-linecap="round" opacity="1" stroke-linejoin="round"/>
<path stroke="#1a4545" stroke-width="1" d="M527.747+43.7397C525.108+43.2999+523.309+48.0686+526.102+48.4677C528.702+48.8391+530.526+44.2029+527.747+43.7397Z" fill="none" stroke-linecap="round" opacity="1" stroke-linejoin="round"/>
<path stroke="#1a4545" stroke-width="1" d="M528.158+24.6222C528.158+27.1824+527.129+29.677+526.102+32.0225C523.958+36.9235+517.904+31.1568+525.691+30.378C526.1+30.3371+526.529+30.2651+526.925+30.378C529.198+31.0277+530.956+33.2957+533.503+32.0225" fill="none" stroke-linecap="round" opacity="1" stroke-linejoin="round"/>
<path stroke="#1a4545" stroke-width="1" d="M542.959+20.5109C542.46+23.501+541.044+29.9669+536.792+29.9669C535.343+29.9669+534.874+25.8828+535.97+25.4444C538.395+24.4744+543.228+28.0458+545.426+29.1446" fill="none" stroke-linecap="round" opacity="1" stroke-linejoin="round"/>
<path stroke="#1a4545" stroke-width="1" d="M552.004+105.204C553.225+106.426+552.732+105.65+553.237+107.671" fill="none" stroke-linecap="round" opacity="1" stroke-linejoin="round"/>
<path stroke="#1a4545" stroke-width="1" d="M557.348+156.184C557.348+158.816+557.366+161.888+556.526+164.407" fill="none" stroke-linecap="round" opacity="1" stroke-linejoin="round"/>
<path stroke="#1a4545" stroke-width="1" d="M355.483+103.559L356.306+101.504L357.128+99.4479L357.95+96.9811L357.95+96.9811" fill="none" stroke-linecap="round" opacity="1" stroke-linejoin="round"/>
<path stroke="#1a4545" stroke-width="1" d="M392.074+55.457C392.896+55.0458+393.718+54.6347+394.541+54.2236" fill="none" stroke-linecap="round" opacity="1" stroke-linejoin="round"/>
<path stroke="#1a4545" stroke-width="1" d="M398.241+52.1679C400.901+50.1729+403.888+48.3167+406.875+46.8232" fill="none" stroke-linecap="round" opacity="1" stroke-linejoin="round"/>
<path stroke="#1a4545" stroke-width="1" d="M412.219+43.123C412.767+42.986+413.316+42.849+413.864+42.7119" fill="none" stroke-linecap="round" opacity="1" stroke-linejoin="round"/>
<path stroke="#1a4545" stroke-width="1" d="M350.961+160.856C351.446+162.798+351.119+161.995+351.783+163.323" fill="none" stroke-linecap="round" opacity="1" stroke-linejoin="round"/>
<path stroke="#1a4545" stroke-width="1" d="M357.539+178.534L357.539+179.768L357.95+180.59L358.772+181.823L358.772+181.823" fill="none" stroke-linecap="round" opacity="1" stroke-linejoin="round"/>
<path stroke="#1a4545" stroke-width="1" d="M380.973+212.247C382.142+212.832+381.579+212.442+382.618+213.481" fill="none" stroke-linecap="round" opacity="1" stroke-linejoin="round"/>
<path stroke="#1a4545" stroke-width="1" d="M383.851+215.536L384.674+215.947L385.085+216.77L385.496+217.592L386.318+218.003L387.14+218.414L387.14+218.414" fill="none" stroke-linecap="round" opacity="1" stroke-linejoin="round"/>
<path stroke="#1a4545" stroke-width="1" d="M459.91+243.082C463.375+243.082+461.587+243.308+465.255+242.26" fill="none" stroke-linecap="round" opacity="1" stroke-linejoin="round"/>
<path stroke="#1a4545" stroke-width="1" d="M470.6+241.026C472.99+239.831+471.64+240.305+474.711+239.793" fill="none" stroke-linecap="round" opacity="1" stroke-linejoin="round"/>
<path stroke="#1a4545" stroke-width="1" d="M482.523+237.326C484.588+236.81+483.631+237.094+485.401+236.504" fill="none" stroke-linecap="round" opacity="1" stroke-linejoin="round"/>
<path stroke="#1a4545" stroke-width="1" d="M491.156+234.859L492.801+234.448L494.445+234.037L495.268+233.626L495.268+233.626" fill="none" stroke-linecap="round" opacity="1" stroke-linejoin="round"/>
<path stroke="#1a4545" stroke-width="1" d="M499.79+231.57L501.023+231.57L502.668+230.748L503.49+230.337L503.49+230.337" fill="none" stroke-linecap="round" opacity="1" stroke-linejoin="round"/>
<path stroke="#1a4545" stroke-width="1" d="M505.957+229.515L507.19+228.692L508.013+228.281L508.835+227.87L510.068+227.459L510.068+227.459" fill="none" stroke-linecap="round" opacity="1" stroke-linejoin="round"/>
<path stroke="#1a4545" stroke-width="1" d="M514.591+224.992L515.413+224.581L517.88+223.759L519.113+222.937L519.113+222.937" fill="none" stroke-linecap="round" opacity="1" stroke-linejoin="round"/>
<path stroke="#1a4545" stroke-width="1" d="M424.326+169.015C422.378+169.015+420.021+172.766+421.03+174.783C422.105+176.934+426.269+173.195+427.21+176.019C428.216+179.037+424.469+180.837+423.09+178.079" fill="none" stroke-linecap="round" opacity="1" stroke-linejoin="round"/>
<path stroke="#1a4545" stroke-width="1" d="M429.682+159.539C429.682+167.6+422.441+169.077+425.562+162.835C427.053+159.854+434.214+169.876+434.214+166.543" fill="none" stroke-linecap="round" opacity="1" stroke-linejoin="round"/>
<path stroke="#1a4545" stroke-width="1" d="M436.274+159.127C436.274+161.973+437.786+164.726+438.746+167.367" fill="none" stroke-linecap="round" opacity="1" stroke-linejoin="round"/>
<path stroke="#1a4545" stroke-width="1" d="M437.098+162.629C435.92+161.372+434.268+159.431+435.038+157.891C435.518+156.931+436.915+154.938+437.51+155.831C438.213+156.885+438.605+159.01+438.334+160.363C438.2+161.036+437.405+162.625+437.098+162.011C436.405+160.623+440.14+159.784+440.806+159.951C442.434+160.358+443.448+165.454+440.394+164.483C439.193+164.1+437.961+163.548+437.098+162.629Z" fill="none" stroke-linecap="round" opacity="1" stroke-linejoin="round"/>
<path stroke="#1a4545" stroke-width="1" d="M425.562+193.323C432.03+193.323+433.39+187.132+433.39+182.199C433.39+181.837+433.635+179.682+433.39+179.315C432.304+177.685+430.959+183.476+430.918+183.435C430.293+182.81+432.306+176.843+432.978+176.843C433.562+176.843+433.347+178.317+433.39+178.491C433.833+180.262+434.772+181.036+436.274+181.787" fill="none" stroke-linecap="round" opacity="1" stroke-linejoin="round"/>
<path stroke="#4f192a" stroke-width="2" d="M350.464+157.067C350.464+150.162+368.19+145.671+373.949+147.59" fill="none" stroke-linecap="round" opacity="1" stroke-linejoin="round"/>
<path stroke="#4f192a" stroke-width="2" d="M352.936+152.122C354.939+150.12+358.652+149.548+361.177+148.826C368.769+146.657+377.792+146.957+384.249+152.122C386.363+153.814+388.07+156.356+390.017+158.303C394.837+163.122+401.684+168.003+406.909+171.487C408.762+172.722+409.905+175.719+411.441+177.255C419.731+185.544+424.73+195.491+427.098+207.331C427.51+209.395+425.946+214.684+424.214+215.983C421.656+217.902+417.339+217.853+414.325+218.455C409.756+219.369+404.929+220.516+400.317+220.516C398.127+220.516+390.928+219.929+390.017+221.752" fill="none" stroke-linecap="round" opacity="1" stroke-linejoin="round"/>
<path stroke="#4f192a" stroke-width="2" d="M455.526+244C454.287+241.521+452.061+238.792+451.406+236.172C449.118+227.02+451.557+218.104+455.114+209.803C455.939+207.878+456.267+205.602+456.762+203.623C457.958+198.84+465.594+196.059+469.946+194.971C473.711+194.03+479.099+195.071+482.719+195.795C484.026+196.057+484.786+197.136+486.015+197.443C487.397+197.789+488.772+197.45+490.135+198.267C492.536+199.708+494.27+202.149+496.727+203.623C500.1+205.647+503.671+207.378+507.027+209.391C508.886+210.507+510.272+212.564+511.971+213.923C514.087+215.616+521.171+223.128+523.507+218.455" fill="none" stroke-linecap="round" opacity="1" stroke-linejoin="round"/>
<path stroke="#4f192a" stroke-width="2" d="M551.524+100.622C545.992+97.8557+533.289+104.562+527.627+105.978C522.19+107.337+516.818+110.486+511.971+113.394C506.94+116.412+501.411+118.711+496.727+122.458C487.325+129.979+483.144+141.238+487.663+152.534C488.807+155.395+491.043+158.373+493.431+160.363C494.772+161.48+496.966+161.751+497.963+163.247C501.327+168.293+505.721+170.277+510.323+173.959C516.348+178.779+525.207+184.388+533.395+183.023C539.886+181.941+545.772+177.238+550.288+172.723C550.754+172.256+559.892+166.131+556.056+166.131" fill="none" stroke-linecap="round" opacity="1" stroke-linejoin="round"/>
<path stroke="#4f192a" stroke-width="2" d="M354.585+106.802C358.302+106.802+362.126+108.79+365.709+109.686C366.782+109.954+367.504+111.152+368.593+111.334C370.453+111.644+372.487+111.434+374.361+111.746C376.005+112.02+377.193+113.181+378.893+113.394C396.952+115.651+413.356+108.372+428.334+99.3856C434.592+95.6305+448.349+82.1472+443.99+73.4292C441.873+69.1953+436.645+66.4117+433.69+62.717C431.534+60.0227+429.525+56.9045+427.098+54.4769C424.698+52.0776+420.031+49.8195+418.446+46.6488C417.869+45.4955+417.449+44.4161+416.385+43.3527" fill="none" stroke-linecap="round" opacity="1" stroke-linejoin="round"/>
<path stroke="#4f192a" stroke-width="2" d="M354.226+107.792C351.875+112.495+351.354+117.226+350.113+122.186C346.925+134.942+344.442+144.155+350.525+156.319" fill="none" stroke-linecap="round" opacity="1" stroke-linejoin="round"/>
<path stroke="#4f192a" stroke-width="2" d="M390.005+223.353C396.039+226.37+401.885+230.737+408.099+233.223C422.627+239.034+439.833+243.093+455.393+243.093" fill="none" stroke-linecap="round" opacity="1" stroke-linejoin="round"/>
<path stroke="#4f192a" stroke-width="2" d="M522.426+220.063C526.117+217.602+529.003+213.556+531.885+210.193C539.268+201.58+545.696+192.029+550.802+181.817C552.743+177.936+554.915+174.354+554.915+169.891" fill="none" stroke-linecap="round" opacity="1" stroke-linejoin="round"/>
<path stroke="#4f192a" stroke-width="2" d="M416.324+41.1701C421.476+39.8823+426.236+37.8663+431.129+36.2351C435.387+34.8159+440.648+34.4053+445.112+33.7676C451.034+32.9217+458.66+33.3531+464.44+34.1789C466.826+34.5197+469.298+35.9171+471.843+36.2351C477.157+36.8994+481.932+37.4048+487.059+39.1139C492.581+40.9544+497.211+45.2181+502.275+47.7501C505.856+49.5407+510.207+51.5692+512.968+54.33C514.466+55.828+517.062+56.2896+518.725+57.62C523.489+61.4309+528.401+64.8288+532.708+69.135C535.752+72.1795+536.003+76.5453+538.465+79.8274C540.992+83.1966+542.526+87.0072+544.634+90.5198C546.375+93.4225+549.271+95.6825+550.802+98.7448" fill="none" stroke-linecap="round" opacity="1" stroke-linejoin="round"/>
<path stroke="#4f192a" stroke-width="2" d="M413.651+114.783C417.783+112.865+407.357+116.369+405.632+117.662C401.648+120.65+398.2+130.48+400.286+135.346C401.974+139.284+406.807+140.673+410.567+141.926C419.981+145.064+428.071+146.873+436.476+139.87C443.836+133.736+442.142+121.474+434.419+116.84C429.612+113.955+422.603+114.567+417.147+113.961C416.182+113.854+412.32+113.68+411.801+114.372C411.422+114.878+413.078+115.05+413.651+114.783Z" fill="none" stroke-linecap="round" opacity="1" stroke-linejoin="round"/>
<path stroke="#4f192a" stroke-width="2" d="M490.555+65.0225C488.885+64.0936+481.431+64.0705+480.068+65.4337C479.447+66.0544+478.971+66.8045+478.423+67.49C477.188+69.0339+477.441+70.6642+477.189+72.4249C476.078+80.2041+476.27+87.6135+485.003+90.1086C487.457+90.8098+491.068+91.6658+493.639+90.9311C502.294+88.4582+507.339+73.0354+499.396+67.0787C496.963+65.2539+493.062+66.4171+490.555+65.0225Z" fill="none" stroke-linecap="round" opacity="1" stroke-linejoin="round"/>
<path stroke="#4f192a" stroke-width="2" d="M410.978+259.543C408.526+259.543+406.048+261.018+404.398+262.833C402.127+265.331+412.25+266.187+413.446+268.179C415.754+272.027+410.916+274.617+407.688+274.348C406.119+274.217+404.527+272.561+403.164+271.88" fill="none" stroke-linecap="round" opacity="1" stroke-linejoin="round"/>
<path stroke="#4f192a" stroke-width="2" d="M420.437+276.198C419.234+276.248+419.863+273.885+418.792+275.17C418.405+275.634+415.616+280.28+417.558+280.928C421.892+282.372+428.582+275.861+420.437+276.198Z" fill="none" stroke-linecap="round" opacity="1" stroke-linejoin="round"/>
<path stroke="#4f192a" stroke-width="2" d="M426.194+254.608C425.203+256.095+424.307+257.644+423.316+259.131C421.801+261.403+421.087+261.945+417.969+263.244C415.827+264.137+416.583+254.12+420.026+255.841C423.369+257.513+422.832+261.575+426.606+262.833" fill="none" stroke-linecap="round" opacity="1" stroke-linejoin="round"/>
<path stroke="#4f192a" stroke-width="2" d="M439.766+270.646C442.507+270.646+445.249+270.646+447.99+270.646" fill="none" stroke-linecap="round" opacity="1" stroke-linejoin="round"/>
<path stroke="#4f192a" stroke-width="2" d="M444.495+274.964C443.18+275.066+441.86+275.234+440.588+275.581C440.059+275.726+441.686+275.623+442.233+275.581C443.471+275.486+444.737+275.497+445.934+275.17C446.402+275.043+444.978+274.927+444.495+274.964Z" fill="none" stroke-linecap="round" opacity="1" stroke-linejoin="round"/>
<path stroke="#4f192a" stroke-width="2" d="M475.955+262.01C478.54+256.841+468.52+261.022+469.375+265.3C470.216+269.504+476.883+266.951+478.423+271.058C480.128+275.604+472.339+279.863+470.198+275.581" fill="none" stroke-linecap="round" opacity="1" stroke-linejoin="round"/>
<path stroke="#4f192a" stroke-width="2" d="M486.853+273.731C482.547+273.177+480.44+280.049+484.18+280.516C489.858+281.226+492.078+274.402+486.853+273.731Z" fill="none" stroke-linecap="round" opacity="1" stroke-linejoin="round"/>
<path stroke="#4f192a" stroke-width="2" d="M491.171+254.196C489.196+258.147+487.327+261.83+482.947+263.655C481.466+264.272+482.408+259.765+482.535+259.543C483.627+257.632+485.621+257.693+487.47+258.309C490.719+259.392+490.959+263.721+494.461+264.889" fill="none" stroke-linecap="round" opacity="1" stroke-linejoin="round"/>
<path stroke="#4f192a" stroke-width="2" d="M503.509+255.43C503.509+257.525+503.721+256.191+502.275+258.72C501.35+260.339+499.534+261.462+497.751+262.01C494.807+262.916+495.882+253.15+501.453+258.72C503.398+260.665+503.038+262.392+505.565+263.655" fill="none" stroke-linecap="round" opacity="1" stroke-linejoin="round"/>
<path stroke="#4f192a" stroke-width="2" d="M510.5+269.413C514.25+269.413+517.838+269.27+521.604+269.001" fill="none" stroke-linecap="round" opacity="1" stroke-linejoin="round"/>
<path stroke="#4f192a" stroke-width="2" d="M517.491+262.421C517.491+266.56+518.314+270.617+518.314+274.759" fill="none" stroke-linecap="round" opacity="1" stroke-linejoin="round"/>
<path stroke="#4f192a" stroke-width="2" d="M546.69+257.075C545.585+255.97+543.447+257.413+542.166+258.309C540.668+259.358+540.549+261.867+540.932+263.655C541.143+264.637+548.624+265.796+549.98+269.413C551.285+272.894+545.083+273.495+542.989+273.114C542.136+272.959+541.344+272.566+540.521+272.291" fill="none" stroke-linecap="round" opacity="1" stroke-linejoin="round"/>
<path stroke="#4f192a" stroke-width="2" d="M555.943+268.385C553.769+270.882+552.009+276.41+555.737+275.581C563.765+273.797+558.817+265.083+555.943+268.385Z" fill="none" stroke-linecap="round" opacity="1" stroke-linejoin="round"/>
<path stroke="#4f192a" stroke-width="2" d="M557.794+243.915C557.794+248.272+554.966+252.286+552.447+255.841C550.792+258.178+547.66+247.071+552.447+248.439C555.465+249.301+555.478+255.43+559.439+255.43" fill="none" stroke-linecap="round" opacity="1" stroke-linejoin="round"/>
<path stroke="#4f192a" stroke-width="2" d="M564.374+243.915C563.731+247.129+564.444+255.571+565.607+257.898" fill="none" stroke-linecap="round" opacity="1" stroke-linejoin="round"/>
<path stroke="#4f192a" stroke-width="2" d="M564.99+248.85C564.35+247.907+561.448+243.322+564.374+241.859C566.009+241.041+567.912+240.347+569.72+240.625C571.069+240.833+568.553+248.506+566.841+246.794C566.191+246.144+568.396+245.446+569.309+245.56C571.396+245.821+571.702+247.985+571.365+249.673C571.167+250.66+570.035+251.314+569.309+251.729C567.807+252.587+565.963+250.281+564.99+248.85Z" fill="none" stroke-linecap="round" opacity="1" stroke-linejoin="round"/>
<path stroke="#1a4545" stroke-width="1" d="M344.625+601.938C338.534+653.31+334.6+704.985+328.906+756.406C328.463+760.413+328.756+764.479+328.469+768.5C327.73+778.849+325.841+789.082+324.312+799.344L357.562+618.375C357.348+618.364+357.154+618.462+356.938+618.438C351.451+617.804+347.523+612.83+348.156+607.344C348.333+605.812+348.619+604.253+348.812+602.719C347.36+602.722+345.931+602.516+344.625+601.938Z" fill="none" stroke-linecap="round" opacity="1" stroke-linejoin="round"/>
<path stroke="#1a4545" stroke-width="1" d="M522.546+418.745C523.395+420.443+525.012+428.347+525.012+430.668" fill="none" stroke-linecap="round" opacity="1" stroke-linejoin="round"/>
<path stroke="#1a4545" stroke-width="1" d="M524.601+423.473C523.831+422.678+523.672+421.454+523.368+420.39C522+415.602+530.271+415.807+525.423+421.623C525.175+421.921+524.989+422.445+524.601+422.445C524.295+422.445+524.828+421.868+525.012+421.623C525.745+420.646+527.962+419.228+529.124+420.39C531.723+422.989+528.851+427.863+524.601+423.473Z" fill="none" stroke-linecap="round" opacity="1" stroke-linejoin="round"/>
<path stroke="#1a4545" stroke-width="1" d="M557.492+396.133C558.713+397.355+558.22+396.579+558.725+398.6" fill="none" stroke-linecap="round" opacity="1" stroke-linejoin="round"/>
<path stroke="#1a4545" stroke-width="1" d="M559.958+403.945C559.958+406.023+559.785+405.069+560.37+406.823" fill="none" stroke-linecap="round" opacity="1" stroke-linejoin="round"/>
<path stroke="#1a4545" stroke-width="1" d="M561.192+411.756L561.192+412.989L561.603+415.456L561.603+416.69L561.603+416.69" fill="none" stroke-linecap="round" opacity="1" stroke-linejoin="round"/>
<path stroke="#1a4545" stroke-width="1" d="M562.631+423.884C563.064+423.668+562.768+422.788+562.425+422.445C562.083+422.103+562.197+424.101+562.631+423.884Z" fill="none" stroke-linecap="round" opacity="1" stroke-linejoin="round"/>
<path stroke="#1a4545" stroke-width="1" d="M562.425+431.901C562.425+433.135+562.425+434.368+562.425+435.602" fill="none" stroke-linecap="round" opacity="1" stroke-linejoin="round"/>
<path stroke="#1a4545" stroke-width="1" d="M562.014+440.946C562.014+441.906+562.014+442.865+562.014+443.824" fill="none" stroke-linecap="round" opacity="1" stroke-linejoin="round"/>
<path stroke="#1a4545" stroke-width="1" d="M562.836+447.113C562.836+449.745+562.854+452.817+562.014+455.336" fill="none" stroke-linecap="round" opacity="1" stroke-linejoin="round"/>
<path stroke="#1a4545" stroke-width="1" d="M564.07+420.39C566.721+419.506+569.538+419.224+572.292+418.745C575.267+418.228+575.696+418.078+579.282+418.334C584.774+418.726+577.057+428.214+578.459+430.668C579.451+432.403+585.674+429.584+586.271+429.435C593.11+427.725+600.558+427.55+607.238+425.323" fill="none" stroke-linecap="round" opacity="1" stroke-linejoin="round"/>
<path stroke="#1a4545" stroke-width="1" d="M601.483+423.268C603.742+425.527+606.534+423.327+608.883+424.501C609.271+424.695+608.666+425.347+608.472+425.735C607.386+427.907+605.475+429.672+604.36+431.901" fill="none" stroke-linecap="round" opacity="1" stroke-linejoin="round"/>
<path stroke="#1a4545" stroke-width="1" d="M624.506+414.634C620.937+414.634+617.33+418.247+618.75+422.034C618.841+422.276+626.973+421.021+626.973+426.146C626.973+428.9+622.258+432.011+619.572+430.668C618.959+430.362+618.823+429.508+618.339+429.024" fill="none" stroke-linecap="round" opacity="1" stroke-linejoin="round"/>
<path stroke="#1a4545" stroke-width="1" d="M633.551+425.529C630.217+425.214+630.154+431.039+633.551+432.313C636.627+433.466+639.126+426.055+633.551+425.529Z" fill="none" stroke-linecap="round" opacity="1" stroke-linejoin="round"/>
<path stroke="#1a4545" stroke-width="1" d="M629.439+408.056C629.8+411.66+631.084+415.171+631.084+418.745" fill="none" stroke-linecap="round" opacity="1" stroke-linejoin="round"/>
<path stroke="#1a4545" stroke-width="1" d="M630.878+412.373C629.903+411.247+629.104+409.323+629.439+407.645C629.662+406.529+632.5+403.777+633.551+405.178C635.107+407.252+632.866+408.877+632.317+410.523C632.084+411.223+633.642+409.805+634.373+409.7C635.483+409.542+636.61+409.306+636.429+410.934C635.904+415.652+632.891+414.696+630.878+412.373Z" fill="none" stroke-linecap="round" opacity="1" stroke-linejoin="round"/>
<path stroke="#1a4545" stroke-width="1" d="M640.54+404.356C640.54+409.486+642.184+414.434+642.184+419.568" fill="none" stroke-linecap="round" opacity="1" stroke-linejoin="round"/>
<path stroke="#1a4545" stroke-width="1" d="M641.773+409.289C641.078+407.743+640.034+405.974+640.54+404.356C640.906+403.186+642.608+402.6+643.829+402.711C644.625+402.784+644.869+403.992+645.062+404.767C645.27+405.596+642.93+408.315+643.007+408.467C644.045+410.543+646.214+406.165+647.118+408.878C647.43+409.814+645.386+413.581+644.24+412.578C643.209+411.676+642.336+410.539+641.773+409.289Z" fill="none" stroke-linecap="round" opacity="1" stroke-linejoin="round"/>
<path stroke="#1a4545" stroke-width="1" d="M360.971+394.489L361.794+392.433L362.616+390.377L363.438+387.911L363.438+387.911" fill="none" stroke-linecap="round" opacity="1" stroke-linejoin="round"/>
<path stroke="#1a4545" stroke-width="1" d="M366.316+382.977L367.138+382.566L368.372+380.51L368.783+379.277L368.783+379.277" fill="none" stroke-linecap="round" opacity="1" stroke-linejoin="round"/>
<path stroke="#1a4545" stroke-width="1" d="M373.305+371.465L374.127+370.643L374.539+369.41L375.772+368.587L376.594+367.354L376.594+367.354" fill="none" stroke-linecap="round" opacity="1" stroke-linejoin="round"/>
<path stroke="#1a4545" stroke-width="1" d="M381.528+360.365C382.673+358.648+382.001+359.481+383.583+357.898" fill="none" stroke-linecap="round" opacity="1" stroke-linejoin="round"/>
<path stroke="#1a4545" stroke-width="1" d="M389.75+351.731C391.186+351.013+390.328+351.504+392.217+350.087" fill="none" stroke-linecap="round" opacity="1" stroke-linejoin="round"/>
<path stroke="#1a4545" stroke-width="1" d="M397.562+346.386C398.384+345.975+399.206+345.564+400.029+345.153" fill="none" stroke-linecap="round" opacity="1" stroke-linejoin="round"/>
<path stroke="#1a4545" stroke-width="1" d="M403.729+343.097C406.389+341.102+409.376+339.246+412.363+337.753" fill="none" stroke-linecap="round" opacity="1" stroke-linejoin="round"/>
<path stroke="#1a4545" stroke-width="1" d="M417.707+334.052C418.255+333.915+418.804+333.778+419.352+333.641" fill="none" stroke-linecap="round" opacity="1" stroke-linejoin="round"/>
<path stroke="#1a4545" stroke-width="1" d="M356.449+451.785C356.934+453.727+356.607+452.924+357.271+454.252" fill="none" stroke-linecap="round" opacity="1" stroke-linejoin="round"/>
<path stroke="#1a4545" stroke-width="1" d="M363.027+469.464L363.027+470.697L363.438+471.519L364.26+472.753L364.26+472.753" fill="none" stroke-linecap="round" opacity="1" stroke-linejoin="round"/>
<path stroke="#1a4545" stroke-width="1" d="M366.316+476.864C366.59+477.138+366.864+477.412+367.138+477.686" fill="none" stroke-linecap="round" opacity="1" stroke-linejoin="round"/>
<path stroke="#1a4545" stroke-width="1" d="M371.661+486.32L372.072+487.554L372.483+488.376L374.127+490.02L374.539+490.843L375.772+492.076L375.772+492.076" fill="none" stroke-linecap="round" opacity="1" stroke-linejoin="round"/>
<path stroke="#1a4545" stroke-width="1" d="M379.883+497.01L380.294+497.832L381.117+498.654L382.35+499.887L382.35+499.887" fill="none" stroke-linecap="round" opacity="1" stroke-linejoin="round"/>
<path stroke="#1a4545" stroke-width="1" d="M386.461+503.177C387.63+503.761+387.067+503.371+388.106+504.41" fill="none" stroke-linecap="round" opacity="1" stroke-linejoin="round"/>
<path stroke="#1a4545" stroke-width="1" d="M389.339+506.466L390.162+506.877L390.573+507.699L390.984+508.521L391.806+508.932L392.628+509.343L392.628+509.343" fill="none" stroke-linecap="round" opacity="1" stroke-linejoin="round"/>
<path stroke="#1a4545" stroke-width="1" d="M465.398+534.011C468.863+534.011+467.075+534.237+470.743+533.189" fill="none" stroke-linecap="round" opacity="1" stroke-linejoin="round"/>
<path stroke="#1a4545" stroke-width="1" d="M476.088+531.956C478.478+530.761+477.128+531.234+480.199+530.722" fill="none" stroke-linecap="round" opacity="1" stroke-linejoin="round"/>
<path stroke="#1a4545" stroke-width="1" d="M488.011+528.255C490.076+527.739+489.119+528.023+490.888+527.433" fill="none" stroke-linecap="round" opacity="1" stroke-linejoin="round"/>
<path stroke="#1a4545" stroke-width="1" d="M496.644+525.789L498.289+525.378L499.933+524.966L500.756+524.555L500.756+524.555" fill="none" stroke-linecap="round" opacity="1" stroke-linejoin="round"/>
<path stroke="#1a4545" stroke-width="1" d="M505.278+522.5L506.511+522.5L508.156+521.677L508.978+521.266L508.978+521.266" fill="none" stroke-linecap="round" opacity="1" stroke-linejoin="round"/>
<path stroke="#1a4545" stroke-width="1" d="M511.445+520.444L512.678+519.622L513.501+519.211L514.323+518.799L515.556+518.388L515.556+518.388" fill="none" stroke-linecap="round" opacity="1" stroke-linejoin="round"/>
<path stroke="#1a4545" stroke-width="1" d="M520.079+515.922L520.901+515.51L523.368+514.688L524.601+513.866L524.601+513.866" fill="none" stroke-linecap="round" opacity="1" stroke-linejoin="round"/>
<path stroke="#1a4545" stroke-width="1" d="M429.814+459.944C427.866+459.944+425.509+463.695+426.518+465.712C427.593+467.863+431.757+464.124+432.698+466.948C433.704+469.966+429.957+471.766+428.578+469.008" fill="none" stroke-linecap="round" opacity="1" stroke-linejoin="round"/>
<path stroke="#1a4545" stroke-width="1" d="M435.17+450.468C435.17+458.53+427.929+460.006+431.05+453.764C432.54+450.783+439.702+460.805+439.702+457.472" fill="none" stroke-linecap="round" opacity="1" stroke-linejoin="round"/>
<path stroke="#1a4545" stroke-width="1" d="M441.762+450.056C441.762+452.903+443.274+455.656+444.234+458.296" fill="none" stroke-linecap="round" opacity="1" stroke-linejoin="round"/>
<path stroke="#1a4545" stroke-width="1" d="M442.586+453.558C441.408+452.302+439.756+450.36+440.526+448.82C441.006+447.861+442.403+445.867+442.998+446.76C443.701+447.814+444.093+449.939+443.822+451.292C443.687+451.965+442.893+453.554+442.586+452.94C441.893+451.553+445.628+450.713+446.294+450.88C447.922+451.287+448.936+456.384+445.882+455.412C444.681+455.03+443.449+454.477+442.586+453.558Z" fill="none" stroke-linecap="round" opacity="1" stroke-linejoin="round"/>
<path stroke="#1a4545" stroke-width="1" d="M431.05+484.252C437.518+484.252+438.878+478.062+438.878+473.128C438.878+472.766+439.123+470.612+438.878+470.244C437.792+468.615+436.447+474.405+436.406+474.364C435.781+473.74+437.794+467.772+438.466+467.772C439.05+467.772+438.835+469.246+438.878+469.42C439.321+471.191+440.26+471.965+441.762+472.716" fill="none" stroke-linecap="round" opacity="1" stroke-linejoin="round"/>
<path stroke="#4f192a" stroke-width="2" d="M360.048+396.181C361.136+391.831+362.812+387.155+365.171+383.223C365.551+382.59+369.39+377.21+369.39+377.196C369.39+376.747+368.787+377.952+368.787+378.402" fill="none" stroke-linecap="round" opacity="1" stroke-linejoin="round"/>
<path stroke="#4f192a" stroke-width="2" d="M360.35+395.277C361.554+392.868+362.154+390.161+363.363+387.743C366.998+380.473+371.821+371.752+377.526+366.047C378.855+364.718+379.538+362.829+380.841+361.526C386.894+355.473+394.054+350.788+401.031+345.555C408.34+340.074+416.114+335.204+424.837+332.296" fill="none" stroke-linecap="round" opacity="1" stroke-linejoin="round"/>
<path stroke="#4f192a" stroke-width="2" d="M360.952+398.29C360.952+397.841+360.667+396.767+360.35+397.085C359.994+397.44+360.852+397.989+361.254+398.29C362.905+399.529+365.948+400.277+367.883+401.002C371.651+402.415+375.312+402.208+379.334+402.208C393.378+402.208+407.043+401.671+420.016+396.482C422.422+395.52+425.143+394.746+427.248+393.167C432.61+389.145+439.173+385.605+443.219+380.21C444.452+378.565+446.504+377.902+447.136+375.69C448.109+372.285+447.903+369.254+448.342+365.745C448.675+363.077+448.887+360.626+447.438+358.212C446.756+357.075+445.594+356.367+444.726+355.5C443.742+354.516+443.2+352.989+442.315+351.883C440.746+349.922+438.677+348.44+437.192+346.459C435.328+343.973+434.088+341.148+432.069+338.624C430.85+337.1+428.999+336.238+427.85+334.707C427.049+333.638+426.745+332.647+425.44+331.995" fill="none" stroke-linecap="round" opacity="1" stroke-linejoin="round"/>
<path stroke="#4f192a" stroke-width="2" d="M561.346+457.354C560.707+456.076+562.029+453.772+562.25+452.231C562.942+447.386+562.852+442.045+562.852+437.164C562.852+432.939+563.545+428.062+562.852+423.904C562.002+418.802+560.57+413.652+559.839+408.536C558.945+402.278+558.245+395.706+555.319+389.853" fill="none" stroke-linecap="round" opacity="1" stroke-linejoin="round"/>
<path stroke="#4f192a" stroke-width="2" d="M554.415+390.154C551.752+390.154+549.818+391.586+547.182+391.962C539.846+393.01+533.141+396.903+526.39+399.797C522.351+401.528+518.131+402.944+514.336+405.221C510.043+407.797+506.065+411.344+501.981+414.261C499.063+416.345+496.567+420.268+495.05+423.302C494.052+425.297+491.945+426.997+491.133+429.027C490.567+430.44+491.236+433.069+491.434+434.451C491.851+437.369+491.724+440.049+492.941+442.889C493.976+445.305+495.665+446.321+497.159+448.313C500.064+452.186+503.244+455.061+507.104+457.956C507.901+458.554+509.053+458.551+509.816+459.162C511.71+460.677+513.489+463.053+515.541+464.284C516.086+464.611+516.853+464.49+517.349+464.887C523.385+469.716+528.776+474.57+536.937+475.735C543.754+476.709+559.61+465.274+561.647+459.162" fill="none" stroke-linecap="round" opacity="1" stroke-linejoin="round"/>
<path stroke="#4f192a" stroke-width="2" d="M461.3+534.196C476.17+534.196+493.303+529.169+507.104+523.649C511.429+521.919+516.61+519.835+520.363+517.02C522.075+515.735+524.049+514.707+525.787+513.403C525.967+513.269+526.39+513.102+526.39+513.102C526.39+513.102+525.988+513.303+525.787+513.403" fill="none" stroke-linecap="round" opacity="1" stroke-linejoin="round"/>
<path stroke="#4f192a" stroke-width="2" d="M460.998+533.593C450.62+523.215+457.322+512.157+461.601+500.747C463.991+494.373+464.598+490.993+470.943+487.187C479.172+482.249+489.645+487.585+496.858+491.707C499.228+493.061+502.052+493.919+504.392+495.323C507.292+497.063+510.009+499.711+513.131+501.048C514.41+501.596+516.004+501.869+517.349+502.254C521.153+503.34+524.748+508.613+526.39+511.897" fill="none" stroke-linecap="round" opacity="1" stroke-linejoin="round"/>
<path stroke="#4f192a" stroke-width="2" d="M394.703+512.198C394.252+511.297+400.385+512.499+401.935+512.499C406.905+512.499+412.396+513.2+417.303+512.499C426.798+511.143+433.062+502.788+431.467+493.213C431.076+490.869+430.115+488.562+429.659+486.283C429.392+484.951+428.023+484.153+427.549+482.968C422.842+471.2+413.733+462.091+404.044+454.34C402.03+452.729+398.51+451.819+396.812+450.121C395.678+448.987+394.362+447.687+392.895+446.807C389.88+444.998+386.532+443.772+383.553+441.985C377.882+438.583+372.577+436.281+365.472+437.465C363.143+437.853+360.554+440.476+358.542+441.684C357.194+442.492+355.07+442.902+354.323+444.396" fill="none" stroke-linecap="round" opacity="1" stroke-linejoin="round"/>
<path stroke="#4f192a" stroke-width="2" d="M356.432+445.108C354.955+442.154+354.458+447.395+354.624+448.724C354.781+449.981+355.448+450.894+355.829+452.039C357.737+457.761+358.468+464.132+361.856+469.216C364.567+473.282+367.427+477.255+370.294+481.269C374.116+486.62+377.001+492.496+381.745+497.24C383.631+499.127+385.914+501.346+388.073+502.966C388.992+503.655+390.246+503.934+391.087+504.774C393.622+507.31+396.183+510.637+399.524+512.308" fill="none" stroke-linecap="round" opacity="1" stroke-linejoin="round"/>
<path stroke="#4f192a" stroke-width="2" d="M495.653+354.554C490.074+356.962+483.638+359.856+482.695+366.457C481.361+375.793+487.45+386.006+498.063+384.237C503.521+383.327+508.393+378.092+509.515+372.484C510.08+369.658+508.853+366.464+508.309+363.745C508.041+362.405+507.994+359.434+507.104+358.321C505.166+355.899+498.836+353.18+495.653+354.554Z" fill="none" stroke-linecap="round" opacity="1" stroke-linejoin="round"/>
<path stroke="#4f192a" stroke-width="2" d="M428.453+403.523C427.403+402.473+420.986+404.413+419.413+404.728C415.144+405.582+408.396+407.678+407.359+412.864C407.146+413.928+407.538+415.108+407.359+416.179C406.664+420.352+406.921+423.576+410.071+426.726C413.608+430.263+417.43+432.014+422.125+433.356C423.374+433.713+424.471+434.91+425.741+435.164C435.59+437.134+448.169+429.261+446.835+418.59C446.074+412.498+441.038+408.074+435.685+405.933C433.578+405.091+430.016+405.085+428.453+403.523Z" fill="none" stroke-linecap="round" opacity="1" stroke-linejoin="round"/>
<g opacity="1">
<path d="M60.8271+79.1234C61.9209+79.1234+62.7861+78.9047+63.4228+78.4672C64.0595+78.0297+64.3779+77.2406+64.3779+76.1C64.3779+74.8734+63.9326+74.0375+63.042+73.5922C62.5654+73.3578+61.9287+73.2406+61.1318+73.2406L55.4365+73.2406L55.4365+79.1234L60.8271+79.1234ZM53.1045+71.2367L61.0732+71.2367C62.3857+71.2367+63.4677+71.4281+64.3193+71.8109C65.9365+72.5453+66.7451+73.9008+66.7451+75.8773C66.7451+76.9086+66.5322+77.7523+66.1064+78.4086C65.6806+79.0648+65.0849+79.5922+64.3193+79.9906C64.9912+80.264+65.497+80.6234+65.8369+81.0687C66.1767+81.514+66.3662+82.2367+66.4052+83.2367L66.4873+85.5453C66.5107+86.2015+66.5654+86.6898+66.6513+87.0101C66.792+87.557+67.042+87.9086+67.4013+88.0648L67.4013+88.4515L64.542+88.4515C64.4638+88.3031+64.4013+88.1117+64.3545+87.8773C64.3076+87.6429+64.2685+87.1898+64.2373+86.5179L64.0966+83.6468C64.042+82.5218+63.624+81.7679+62.8427+81.3851C62.3974+81.1742+61.6982+81.0687+60.7451+81.0687L55.4365+81.0687L55.4365+88.4515L53.1045+88.4515L53.1045+71.2367Z" opacity="1" fill="#ecd294"/>
<path d="M53.0459+98.8367L65.5966+98.8367L65.5966+100.946L55.3193+100.946L55.3193+106.173L64.8232+106.173L64.8232+108.165L55.3193+108.165L55.3193+114.001L65.7724+114.001L65.7724+116.052L53.0459+116.052L53.0459+98.8367Z" opacity="1" fill="#ecd294"/>
<path d="M54.1826+126.437L59.1279+141.097L64.0146+126.437L66.6279+126.437L60.3466+143.652L57.874+143.652L51.6045+126.437L54.1826+126.437Z" opacity="1" fill="#ecd294"/>
</g>
<path d="M111.454+118.085C111.454+123.469+112.429+128.942+112.429+134.184" opacity="1" fill="#ecd294"/>
<path d="M112.429+117.597C112.429+124.264+112.429+130.932+112.429+137.599C112.429+139.599+112.429+137.599+112.429+137.599" opacity="1" fill="#ecd294"/>
<path stroke="#1a4545" stroke-width="2" d="M114.381+109.791C113.089+114.957+113.893+121.003+113.893+126.378" fill="none" stroke-linecap="round" opacity="1" stroke-linejoin="round"/>
<path stroke="#1a4545" stroke-width="2" d="M113.893+112.23C113.893+110.194+116.158+105.801+119.259+107.352C123.323+109.384+118.11+122.215+115.357+118.085C113.78+115.719+118.28+119.055+118.284+119.06C120.324+121.781+121.74+124.509+123.162+127.354" fill="none" stroke-linecap="round" opacity="1" stroke-linejoin="round"/>
<path stroke="#1a4545" stroke-width="2" d="M127.553+108.327C127.553+113.709+128.529+119.031+128.529+124.427" fill="none" stroke-linecap="round" opacity="1" stroke-linejoin="round"/>
<path stroke="#1a4545" stroke-width="2" d="M132.188+108.571C131.128+108.571+127.961+108.423+129.017+108.327C130.96+108.151+132.925+108.178+134.871+108.327C135.767+108.396+133.086+108.571+132.188+108.571Z" fill="none" stroke-linecap="round" opacity="1" stroke-linejoin="round"/>
<path stroke="#1a4545" stroke-width="2" d="M132.676+117.109C131.781+117.109+129.098+117.109+129.992+117.109C131.781+117.109+133.57+117.109+135.359+117.109C136.253+117.109+133.57+117.109+132.676+117.109Z" fill="none" stroke-linecap="round" opacity="1" stroke-linejoin="round"/>
<path stroke="#1a4545" stroke-width="2" d="M129.017+124.427L130.48+124.915L132.432+124.915L134.383+124.915L136.823+124.427L136.823+124.427" fill="none" stroke-linecap="round" opacity="1" stroke-linejoin="round"/>
<path stroke="#1a4545" stroke-width="2" d="M142.677+108.815C142.514+108.49+142.041+107.507+142.189+107.839C144.571+113.199+146.021+118.313+147.555+123.939C147.651+124.29+147.68+124.915+148.043+124.915C148.407+124.915+148.369+124.264+148.531+123.939" fill="none" stroke-linecap="round" opacity="1" stroke-linejoin="round"/>
<path stroke="#1a4545" stroke-width="2" d="M154.386+107.839C152.516+111.578+151.334+117.674+149.995+121.5C149.655+122.47+149.344+123.451+149.019+124.427C148.856+124.915+148.017+125.89+148.531+125.89C149.118+125.89+149.182+124.915+149.507+124.427" fill="none" stroke-linecap="round" opacity="1" stroke-linejoin="round"/>
<path stroke="#1a4545" stroke-width="2" d="M153.898+107.839C155.703+107.839+154.555+107.776+157.313+108.327" fill="none" stroke-linecap="round" opacity="1" stroke-linejoin="round"/>
<path stroke="#1a4545" stroke-width="2" d="M139.75+107.839C141.384+107.839+143.01+107.583+144.628+107.352" fill="none" stroke-linecap="round" opacity="1" stroke-linejoin="round"/>
<path stroke="#1a4545" stroke-width="2" d="M113.405+112.23C113.405+111.742+113.405+110.279+113.405+110.767C113.405+111.905+113.405+113.043+113.405+114.182C113.405+114.832+113.405+112.881+113.405+112.23Z" fill="none" stroke-linecap="round" opacity="1" stroke-linejoin="round"/>
<path stroke="#1a4545" stroke-width="2" d="M113.893+111.011C113.84+110.118+113.893+109.222+113.893+108.327C113.893+107.514+113.893+109.953+113.893+110.767C113.893+112.401+114.112+114.033+114.381+115.645C114.434+115.966+114.415+116.944+114.381+116.621C114.184+114.754+114.003+112.884+113.893+111.011Z" fill="none" stroke-linecap="round" opacity="1" stroke-linejoin="round"/>
<path stroke="#1a4545" stroke-width="2" d="M115.113+107.595C113.569+107.692+112.02+107.47+110.478+107.352C109.991+107.314+111.455+107.392+111.942+107.352C113.409+107.229+114.864+106.977+116.332+106.864C116.981+106.814+118.842+106.529+118.284+106.864C117.354+107.422+116.195+107.528+115.113+107.595Z" fill="none" stroke-linecap="round" opacity="1" stroke-linejoin="round"/>
<path stroke="#1a4545" stroke-width="2" d="M833.003+283.47C838.266+284.446+843.529+285.421+848.792+286.397" fill="none" stroke-linecap="round" opacity="1" stroke-linejoin="round"/>
<path stroke="#1a4545" stroke-width="2" d="M865.379+290.3C871.293+290.137+877.206+289.975+883.119+289.812" fill="none" stroke-linecap="round" opacity="1" stroke-linejoin="round"/>
<path stroke="#1a4545" stroke-width="2" d="M567.162+73.2011C566.674+73.5264+565.195+73.8752+565.698+74.1769C566.321+74.5505+573.038+75.1305+573.992+74.1769C574.821+73.3477+572.622+72.2679+572.04+71.2497C571.133+69.6617+570.329+65.6478+571.065+63.9318C571.998+61.7535+576.611+54.9963+579.846+56.6138C582.91+58.1456+582.677+64.2209+581.798+66.8589C581.781+66.9101+579.717+70.3728+579.846+70.7618C580.222+71.8889+585.319+71.2497+586.188+71.2497" fill="none" stroke-linecap="round" opacity="1" stroke-linejoin="round"/>
<path stroke="#1a4545" stroke-width="2" d="M591.067+68.5664C587.862+69.1919+586.996+72.057+589.116+74.1769C593.016+78.0775+598.288+67.1576+591.067+68.5664Z" fill="none" stroke-linecap="round" opacity="1" stroke-linejoin="round"/>
<path stroke="#1a4545" stroke-width="2" d="M594.482+46.8566C593.874+49.2882+590.453+56.1983+587.652+55.6381C585.63+55.2336+586.779+50.124+588.14+49.7837C588.763+49.6281+594.843+57.1017+597.897+57.1017" fill="none" stroke-linecap="round" opacity="1" stroke-linejoin="round"/>
<path stroke="#1a4545" stroke-width="2" d="M38.5372+131.886C37.9201+131.557+37.6477+130.733+37.0736+130.324C35.0215+128.865+32.195+133.788+32.195+135.53C32.195+137.661+41.0878+138.178+39.5129+144.899C38.6329+148.655+30.2436+145.546+30.2436+142.817" fill="none" stroke-linecap="round" opacity="1" stroke-linejoin="round"/>
<path stroke="#1a4545" stroke-width="2" d="M45.3673+140.735C44.6664+140.542+43.5751+142.318+43.4159+143.338C41.7665+153.897+54.092+143.137+45.3673+140.735Z" fill="none" stroke-linecap="round" opacity="1" stroke-linejoin="round"/>
<path stroke="#1a4545" stroke-width="2" d="M59.7593+138.913C59.1946+138.798+57.6452+138.219+58.0517+138.653C58.2054+138.817+63.1246+139.602+59.7593+138.913Z" fill="none" stroke-linecap="round" opacity="1" stroke-linejoin="round"/>
<path stroke="#1a4545" stroke-width="2" d="M58.7835+143.338C58.0384+143.425+55.8385+143.858+56.5881+143.858C57.3378+143.858+59.5287+143.25+58.7835+143.338Z" fill="none" stroke-linecap="round" opacity="1" stroke-linejoin="round"/>
<path stroke="#1a4545" stroke-width="2" d="M58.7835+139.173C57.7265+139.173+56.6695+139.173+55.6124+139.173C54.7993+139.173+57.2386+139.173+58.0517+139.173C59.0275+139.173+60.0032+139.173+60.9789+139.173C61.7107+139.173+59.5153+139.173+58.7835+139.173Z" fill="none" stroke-linecap="round" opacity="1" stroke-linejoin="round"/>
<path stroke="#1a4545" stroke-width="2" d="M57.5639+143.338L58.5396+143.338L60.491+142.817L62.4425+142.817L63.4182+142.817L64.3939+142.817L64.3939+142.817" fill="none" stroke-linecap="round" opacity="1" stroke-linejoin="round"/>
<path stroke="#1a4545" stroke-width="2" d="M73.6633+144.899C75.3054+142.271+72.867+139.048+70.7362+141.776C67.362+146.096+69.2183+152.889+74.6391+149.584C79.2483+146.774+76.5399+138.558+74.6391+135.009C73.7787+133.402+71.9935+130.764+70.7362+133.447" fill="none" stroke-linecap="round" opacity="1" stroke-linejoin="round"/>
<path stroke="#1a4545" stroke-width="2" d="M79.5177+148.543C80.8187+148.543+82.8388+149.785+83.4206+148.543C83.7636+147.811+81.6916+145.328+81.4691+144.379C80.5856+140.608+81.0413+135.123+85.372+133.968C88.0412+133.256+91.7143+140.332+91.7143+142.817C91.7143+146.916+87.3235+149.211+87.3235+150.105C87.3235+150.989+88.9497+149.758+89.7628+149.584C91.3092+149.254+95.6172+147.365+95.6172+149.584" fill="none" stroke-linecap="round" opacity="1" stroke-linejoin="round"/>
<path stroke="#1a4545" stroke-width="2" d="M99.0322+144.118C99.0322+144.476+98.1768+144.045+98.0565+144.379C97.3344+146.382+96.8774+148.501+96.5929+150.625C96.3479+152.455+99.9256+153.937+100.984+153.748C102.657+153.451+103.254+151.026+103.423+149.584C103.902+145.495+99.0322+140.882+99.0322+144.118Z" fill="none" stroke-linecap="round" opacity="1" stroke-linejoin="round"/>
<path stroke="#1a4545" stroke-width="2" d="M565.21+370.797C567.169+370.797+569.112+370.46+571.065+370.31C572.038+370.235+573.016+370.31+573.992+370.31C574.317+370.31+574.968+370.635+574.968+370.31C574.968+369.268+573.345+368.858+573.016+367.87C571.616+363.671+573.255+355.429+579.358+356.649C584.597+357.697+581.759+367.459+580.334+370.31C580.128+370.721+579.358+370.825+579.358+371.285C579.358+371.611+580.009+371.285+580.334+371.285C582.86+371.285+585.127+370.797+587.652+370.797" fill="none" stroke-linecap="round" opacity="1" stroke-linejoin="round"/>
<path stroke="#1a4545" stroke-width="2" d="M592.531+368.602C589.441+369.261+587.698+375.823+592.531+374.212C595.087+373.36+596.514+367.753+592.531+368.602Z" fill="none" stroke-linecap="round" opacity="1" stroke-linejoin="round"/>
<path stroke="#1a4545" stroke-width="2" d="M587.652+349.331C587.652+352.754+588.14+356.153+588.14+359.577" fill="none" stroke-linecap="round" opacity="1" stroke-linejoin="round"/>
<path stroke="#1a4545" stroke-width="2" d="M587.896+352.747C586.931+350.059+585.624+345.236+591.067+345.916C593.691+346.244+588.917+350.578+588.628+350.795C588.337+351.013+587.288+351.283+587.652+351.283C587.881+351.283+591.998+349.786+592.043+349.819C594.823+351.904+590.462+359.894+587.896+352.747Z" fill="none" stroke-linecap="round" opacity="1" stroke-linejoin="round"/>
<path stroke="#1a4545" stroke-width="1" d="M142.94+262.785C143.649+260.178+141.461+259.661+140.975+263.066C140.926+263.406+140.76+265.563+141.536+265.874C146.693+267.937+143.844+259.094+142.098+260.258C139.792+261.796+142.938+265.034+144.344+263.628C146.328+261.644+143.351+260.88+142.098+261.382C140.982+261.828+141.36+268.597+142.94+262.785Z" fill="none" stroke-linecap="round" opacity="1" stroke-linejoin="round"/>
<path stroke="#1a4545" stroke-width="1" d="M144.906+263.347C144.801+257.607+141.601+268.12+144.344+268.12C150.236+268.12+145.553+258.488+142.659+261.382C141.368+262.673+141.236+268.24+144.344+266.997C148.456+265.352+144.554+260.867+142.098+262.505C140.044+263.874+141.313+268.512+144.344+266.997C146.367+265.985+146.59+261.662+143.783+263.066C141.553+264.181+141.625+267.544+144.906+266.997C146.187+266.784+147.556+263.268+146.029+262.505C144.629+261.805+141.686+263.666+142.098+265.312C142.881+268.444+146.913+264.994+145.467+263.066C143.493+260.434+145.044+270.969+144.906+263.347Z" fill="none" stroke-linecap="round" opacity="1" stroke-linejoin="round"/>
<path stroke="#1a4545" stroke-width="2" d="M42.1423+399.522C42.1423+419.473+40.4577+438.994+40.4577+459.046" fill="none" stroke-linecap="round" opacity="1" stroke-linejoin="round"/>
<path stroke="#1a4545" stroke-width="2" d="M41.0192+457.923C37.7574+464.447+27.2553+476.036+20.8035+479.262" fill="none" stroke-linecap="round" opacity="1" stroke-linejoin="round"/>
<path stroke="#1a4545" stroke-width="2" d="M42.7038+459.608C47.8151+463.016+56.9577+461.583+62.9196+460.731C67.1387+460.128+71.6161+461.334+75.8352+460.731C89.7293+458.746+103.501+459.608+117.39+459.608" fill="none" stroke-linecap="round" opacity="1" stroke-linejoin="round"/>
<path stroke="#1a4545" stroke-width="2" d="M47.1962+403.734C46.2191+402.07+43.8021+398.498+42.7038+400.084C41.2547+402.177+39.6237+404.143+38.2115+406.261C37.7471+406.957+37.6803+407.915+37.0884+408.507C36.8236+408.772+36.9976+407.747+37.0884+407.384C37.4248+406.038+38.4549+405.632+39.3346+404.576C40.2775+403.445+41.8994+400.767+43.2654+400.084C45.158+399.138+52.0388+411.979+47.1962+403.734Z" fill="none" stroke-linecap="round" opacity="1" stroke-linejoin="round"/>
<path stroke="#1a4545" stroke-width="2" d="M114.582+452.869C114.582+455.706+121.882+459.098+121.882+459.608C121.882+460.616+119.939+460.213+119.074+460.731C117.626+461.6+115.329+463.169+114.582+464.662" fill="none" stroke-linecap="round" opacity="1" stroke-linejoin="round"/>
<path stroke="#1a4545" stroke-width="2" d="M26.1382+477.297C25.1908+476.16+23.796+474.077+22.4881+474.77C20.9629+475.577+21.8191+478.159+21.365+479.824C21.2549+480.228+20.6163+480.572+20.8035+480.947C21.222+481.784+22.6847+480.815+23.6112+480.947C24.3752+481.056+25.0961+481.382+25.8574+481.508C26.5959+481.631+28.2504+482.243+28.1036+481.508C27.7998+479.989+27.13+478.487+26.1382+477.297Z" fill="none" stroke-linecap="round" opacity="1" stroke-linejoin="round"/>
<path stroke="#1a4545" stroke-width="2" d="M41.0192+457.081C38.9149+456.029+40.3612+460.567+41.0192+460.731C44.587+461.623+42.5732+457.858+41.0192+457.081Z" fill="none" stroke-linecap="round" opacity="1" stroke-linejoin="round"/>
<path stroke="#1a4545" stroke-width="2" d="M44.3885+457.923C48.7438+449.213+54.3268+441.045+58.9887+432.654C61.5913+427.969+63.0867+422.333+65.7273+417.492C73.9743+402.372+81.0969+386.28+88.1892+370.322C93.8447+357.597+101.617+345.714+107.843+333.26C114.99+318.967+122.961+304.692+131.428+291.144C133.483+287.857+136.392+283.553+137.605+279.913C137.936+278.92+140.413+271.696+140.413+274.297" fill="none" stroke-linecap="round" opacity="1" stroke-linejoin="round"/>
<path stroke="#1a4545" stroke-width="2" d="M136.763+275.42C135.245+276.157+133.692+276.984+132.552+278.228C132.269+278.537+133.278+278.922+133.675+278.79C134.563+278.494+135.172+277.666+135.921+277.105C136.781+276.46+142.958+272.416+136.763+275.42Z" fill="none" stroke-linecap="round" opacity="1" stroke-linejoin="round"/>
<path stroke="#1a4545" stroke-width="2" d="M142.098+273.174C142.098+277.951+142.289+282.403+142.659+287.213" fill="none" stroke-linecap="round" opacity="1" stroke-linejoin="round"/>
<path stroke="#1a4545" stroke-width="2" d="M75.2736+410.192C78.0304+409.273+81.7141+410.314+83.6969+412.438C86.56+415.506+84.7127+422.546+80.3276+422.546" fill="none" stroke-linecap="round" opacity="1" stroke-linejoin="round"/>
<path stroke="#1a4545" stroke-width="2" d="M90.997+404.015C85.878+404.015+83.9629+415.63+85.3815+419.177C86.9735+423.156+93.8593+420.053+96.0509+419.177C97.5667+418.57+98.0873+418.263+99.4202+416.93" fill="none" stroke-linecap="round" opacity="1" stroke-linejoin="round"/>
<path stroke="#1a4545" stroke-width="2" d="M89.3123+408.507C89.3123+412.136+89.5487+416.191+90.4354+419.738" fill="none" stroke-linecap="round" opacity="1" stroke-linejoin="round"/>
<path stroke="#1a4545" stroke-width="2" d="M105.878+411.596C100.66+412.295+101.144+424.221+105.597+423.107C110.523+421.876+111.031+410.905+105.878+411.596Z" fill="none" stroke-linecap="round" opacity="1" stroke-linejoin="round"/>
<path stroke="#1a4545" stroke-width="2" d="M150.521+259.697C157.156+253.062+166.08+249.305+173.545+243.974C180.873+238.739+187.981+232.263+196.006+228.25" fill="none" stroke-linecap="round" opacity="1" stroke-linejoin="round"/>
<path stroke="#1a4545" stroke-width="2" d="M190.11+231.9C189.436+230.849+188.385+229.133+189.268+228.25C190.618+226.9+193+227.441+194.883+227.127C195.253+227.066+195.742+226.862+196.006+227.127C196.52+227.641+195.599+229.064+195.445+229.373C193.52+233.224+192.616+235.807+190.11+231.9Z" fill="none" stroke-linecap="round" opacity="1" stroke-linejoin="round"/>
<path stroke="#1a4545" stroke-width="2" d="M150.521+229.935C152.574+229.935+154.435+226.554+156.137+227.689C158.56+229.304+148.96+234.735+149.96+237.235C151.963+242.243+157.843+235.55+160.067+235.55C161.003+235.55+158.552+236.65+157.821+237.235C157.325+237.632+153.672+240.386+155.013+241.727C156.262+242.976+163.437+243.923+163.437+240.604C163.437+239.668+161.752+241.915+161.752+242.85C161.752+243.679+163.059+245.465+163.437+246.22" fill="none" stroke-linecap="round" opacity="1" stroke-linejoin="round"/>
</g>
</svg>
